<mxfile host="Electron" agent="Mozilla/5.0 (Windows NT 10.0; Win64; x64) AppleWebKit/537.36 (KHTML, like Gecko) draw.io/24.7.17 Chrome/128.0.6613.36 Electron/32.0.1 Safari/537.36" version="24.7.17">
  <diagram name="PÃ¡gina-1" id="AOTVCB7nSuQEZsp1g_dG">
    <mxGraphModel dx="458" dy="813" grid="1" gridSize="10" guides="1" tooltips="1" connect="1" arrows="1" fold="1" page="1" pageScale="1" pageWidth="1100" pageHeight="850" math="0" shadow="0">
      <root>
        <mxCell id="0" />
        <mxCell id="1" parent="0" />
        <mxCell id="2CXBRSZFTkt7oXH1fWxL-1" value="Ordenes" style="shape=table;startSize=30;container=1;collapsible=1;childLayout=tableLayout;fixedRows=1;rowLines=0;fontStyle=1;align=center;resizeLast=1;html=1;" vertex="1" parent="1">
          <mxGeometry x="240" y="70" width="160" height="90" as="geometry" />
        </mxCell>
        <mxCell id="2CXBRSZFTkt7oXH1fWxL-2" value="" style="shape=tableRow;horizontal=0;startSize=0;swimlaneHead=0;swimlaneBody=0;fillColor=none;collapsible=0;dropTarget=0;points=[[0,0.5],[1,0.5]];portConstraint=eastwest;top=0;left=0;right=0;bottom=1;" vertex="1" parent="2CXBRSZFTkt7oXH1fWxL-1">
          <mxGeometry y="30" width="160" height="30" as="geometry" />
        </mxCell>
        <mxCell id="2CXBRSZFTkt7oXH1fWxL-3" value="PK" style="shape=partialRectangle;connectable=0;fillColor=none;top=0;left=0;bottom=0;right=0;fontStyle=1;overflow=hidden;whiteSpace=wrap;html=1;" vertex="1" parent="2CXBRSZFTkt7oXH1fWxL-2">
          <mxGeometry width="30" height="30" as="geometry">
            <mxRectangle width="30" height="30" as="alternateBounds" />
          </mxGeometry>
        </mxCell>
        <mxCell id="2CXBRSZFTkt7oXH1fWxL-4" value="id_orden" style="shape=partialRectangle;connectable=0;fillColor=none;top=0;left=0;bottom=0;right=0;align=left;spacingLeft=6;fontStyle=5;overflow=hidden;whiteSpace=wrap;html=1;" vertex="1" parent="2CXBRSZFTkt7oXH1fWxL-2">
          <mxGeometry x="30" width="130" height="30" as="geometry">
            <mxRectangle width="130" height="30" as="alternateBounds" />
          </mxGeometry>
        </mxCell>
        <mxCell id="2CXBRSZFTkt7oXH1fWxL-5" value="" style="shape=tableRow;horizontal=0;startSize=0;swimlaneHead=0;swimlaneBody=0;fillColor=none;collapsible=0;dropTarget=0;points=[[0,0.5],[1,0.5]];portConstraint=eastwest;top=0;left=0;right=0;bottom=0;" vertex="1" parent="2CXBRSZFTkt7oXH1fWxL-1">
          <mxGeometry y="60" width="160" height="30" as="geometry" />
        </mxCell>
        <mxCell id="2CXBRSZFTkt7oXH1fWxL-6" value="" style="shape=partialRectangle;connectable=0;fillColor=none;top=0;left=0;bottom=0;right=0;editable=1;overflow=hidden;whiteSpace=wrap;html=1;" vertex="1" parent="2CXBRSZFTkt7oXH1fWxL-5">
          <mxGeometry width="30" height="30" as="geometry">
            <mxRectangle width="30" height="30" as="alternateBounds" />
          </mxGeometry>
        </mxCell>
        <mxCell id="2CXBRSZFTkt7oXH1fWxL-7" value="fecha" style="shape=partialRectangle;connectable=0;fillColor=none;top=0;left=0;bottom=0;right=0;align=left;spacingLeft=6;overflow=hidden;whiteSpace=wrap;html=1;" vertex="1" parent="2CXBRSZFTkt7oXH1fWxL-5">
          <mxGeometry x="30" width="130" height="30" as="geometry">
            <mxRectangle width="130" height="30" as="alternateBounds" />
          </mxGeometry>
        </mxCell>
        <mxCell id="2CXBRSZFTkt7oXH1fWxL-14" value="Detalles_Orden" style="shape=table;startSize=30;container=1;collapsible=1;childLayout=tableLayout;fixedRows=1;rowLines=0;fontStyle=1;align=center;resizeLast=1;html=1;" vertex="1" parent="1">
          <mxGeometry x="240" y="180" width="160" height="120" as="geometry" />
        </mxCell>
        <mxCell id="2CXBRSZFTkt7oXH1fWxL-15" value="" style="shape=tableRow;horizontal=0;startSize=0;swimlaneHead=0;swimlaneBody=0;fillColor=none;collapsible=0;dropTarget=0;points=[[0,0.5],[1,0.5]];portConstraint=eastwest;top=0;left=0;right=0;bottom=1;" vertex="1" parent="2CXBRSZFTkt7oXH1fWxL-14">
          <mxGeometry y="30" width="160" height="30" as="geometry" />
        </mxCell>
        <mxCell id="2CXBRSZFTkt7oXH1fWxL-16" value="PK" style="shape=partialRectangle;connectable=0;fillColor=none;top=0;left=0;bottom=0;right=0;fontStyle=1;overflow=hidden;whiteSpace=wrap;html=1;" vertex="1" parent="2CXBRSZFTkt7oXH1fWxL-15">
          <mxGeometry width="30" height="30" as="geometry">
            <mxRectangle width="30" height="30" as="alternateBounds" />
          </mxGeometry>
        </mxCell>
        <mxCell id="2CXBRSZFTkt7oXH1fWxL-17" value="id_orden" style="shape=partialRectangle;connectable=0;fillColor=none;top=0;left=0;bottom=0;right=0;align=left;spacingLeft=6;fontStyle=5;overflow=hidden;whiteSpace=wrap;html=1;" vertex="1" parent="2CXBRSZFTkt7oXH1fWxL-15">
          <mxGeometry x="30" width="130" height="30" as="geometry">
            <mxRectangle width="130" height="30" as="alternateBounds" />
          </mxGeometry>
        </mxCell>
        <mxCell id="2CXBRSZFTkt7oXH1fWxL-18" value="" style="shape=tableRow;horizontal=0;startSize=0;swimlaneHead=0;swimlaneBody=0;fillColor=none;collapsible=0;dropTarget=0;points=[[0,0.5],[1,0.5]];portConstraint=eastwest;top=0;left=0;right=0;bottom=0;" vertex="1" parent="2CXBRSZFTkt7oXH1fWxL-14">
          <mxGeometry y="60" width="160" height="30" as="geometry" />
        </mxCell>
        <mxCell id="2CXBRSZFTkt7oXH1fWxL-19" value="" style="shape=partialRectangle;connectable=0;fillColor=none;top=0;left=0;bottom=0;right=0;editable=1;overflow=hidden;whiteSpace=wrap;html=1;" vertex="1" parent="2CXBRSZFTkt7oXH1fWxL-18">
          <mxGeometry width="30" height="30" as="geometry">
            <mxRectangle width="30" height="30" as="alternateBounds" />
          </mxGeometry>
        </mxCell>
        <mxCell id="2CXBRSZFTkt7oXH1fWxL-20" value="id_articulo" style="shape=partialRectangle;connectable=0;fillColor=none;top=0;left=0;bottom=0;right=0;align=left;spacingLeft=6;overflow=hidden;whiteSpace=wrap;html=1;" vertex="1" parent="2CXBRSZFTkt7oXH1fWxL-18">
          <mxGeometry x="30" width="130" height="30" as="geometry">
            <mxRectangle width="130" height="30" as="alternateBounds" />
          </mxGeometry>
        </mxCell>
        <mxCell id="2CXBRSZFTkt7oXH1fWxL-21" value="" style="shape=tableRow;horizontal=0;startSize=0;swimlaneHead=0;swimlaneBody=0;fillColor=none;collapsible=0;dropTarget=0;points=[[0,0.5],[1,0.5]];portConstraint=eastwest;top=0;left=0;right=0;bottom=0;" vertex="1" parent="2CXBRSZFTkt7oXH1fWxL-14">
          <mxGeometry y="90" width="160" height="30" as="geometry" />
        </mxCell>
        <mxCell id="2CXBRSZFTkt7oXH1fWxL-22" value="" style="shape=partialRectangle;connectable=0;fillColor=none;top=0;left=0;bottom=0;right=0;editable=1;overflow=hidden;whiteSpace=wrap;html=1;" vertex="1" parent="2CXBRSZFTkt7oXH1fWxL-21">
          <mxGeometry width="30" height="30" as="geometry">
            <mxRectangle width="30" height="30" as="alternateBounds" />
          </mxGeometry>
        </mxCell>
        <mxCell id="2CXBRSZFTkt7oXH1fWxL-23" value="cantidad" style="shape=partialRectangle;connectable=0;fillColor=none;top=0;left=0;bottom=0;right=0;align=left;spacingLeft=6;overflow=hidden;whiteSpace=wrap;html=1;" vertex="1" parent="2CXBRSZFTkt7oXH1fWxL-21">
          <mxGeometry x="30" width="130" height="30" as="geometry">
            <mxRectangle width="130" height="30" as="alternateBounds" />
          </mxGeometry>
        </mxCell>
        <mxCell id="2CXBRSZFTkt7oXH1fWxL-27" value="Clientes" style="shape=table;startSize=30;container=1;collapsible=1;childLayout=tableLayout;fixedRows=1;rowLines=0;fontStyle=1;align=center;resizeLast=1;html=1;" vertex="1" parent="1">
          <mxGeometry x="240" y="320" width="160" height="120" as="geometry" />
        </mxCell>
        <mxCell id="2CXBRSZFTkt7oXH1fWxL-28" value="" style="shape=tableRow;horizontal=0;startSize=0;swimlaneHead=0;swimlaneBody=0;fillColor=none;collapsible=0;dropTarget=0;points=[[0,0.5],[1,0.5]];portConstraint=eastwest;top=0;left=0;right=0;bottom=1;" vertex="1" parent="2CXBRSZFTkt7oXH1fWxL-27">
          <mxGeometry y="30" width="160" height="30" as="geometry" />
        </mxCell>
        <mxCell id="2CXBRSZFTkt7oXH1fWxL-29" value="PK" style="shape=partialRectangle;connectable=0;fillColor=none;top=0;left=0;bottom=0;right=0;fontStyle=1;overflow=hidden;whiteSpace=wrap;html=1;" vertex="1" parent="2CXBRSZFTkt7oXH1fWxL-28">
          <mxGeometry width="30" height="30" as="geometry">
            <mxRectangle width="30" height="30" as="alternateBounds" />
          </mxGeometry>
        </mxCell>
        <mxCell id="2CXBRSZFTkt7oXH1fWxL-30" value="id_cliente" style="shape=partialRectangle;connectable=0;fillColor=none;top=0;left=0;bottom=0;right=0;align=left;spacingLeft=6;fontStyle=5;overflow=hidden;whiteSpace=wrap;html=1;" vertex="1" parent="2CXBRSZFTkt7oXH1fWxL-28">
          <mxGeometry x="30" width="130" height="30" as="geometry">
            <mxRectangle width="130" height="30" as="alternateBounds" />
          </mxGeometry>
        </mxCell>
        <mxCell id="2CXBRSZFTkt7oXH1fWxL-31" value="" style="shape=tableRow;horizontal=0;startSize=0;swimlaneHead=0;swimlaneBody=0;fillColor=none;collapsible=0;dropTarget=0;points=[[0,0.5],[1,0.5]];portConstraint=eastwest;top=0;left=0;right=0;bottom=0;" vertex="1" parent="2CXBRSZFTkt7oXH1fWxL-27">
          <mxGeometry y="60" width="160" height="30" as="geometry" />
        </mxCell>
        <mxCell id="2CXBRSZFTkt7oXH1fWxL-32" value="" style="shape=partialRectangle;connectable=0;fillColor=none;top=0;left=0;bottom=0;right=0;editable=1;overflow=hidden;whiteSpace=wrap;html=1;" vertex="1" parent="2CXBRSZFTkt7oXH1fWxL-31">
          <mxGeometry width="30" height="30" as="geometry">
            <mxRectangle width="30" height="30" as="alternateBounds" />
          </mxGeometry>
        </mxCell>
        <mxCell id="2CXBRSZFTkt7oXH1fWxL-33" value="cliente" style="shape=partialRectangle;connectable=0;fillColor=none;top=0;left=0;bottom=0;right=0;align=left;spacingLeft=6;overflow=hidden;whiteSpace=wrap;html=1;" vertex="1" parent="2CXBRSZFTkt7oXH1fWxL-31">
          <mxGeometry x="30" width="130" height="30" as="geometry">
            <mxRectangle width="130" height="30" as="alternateBounds" />
          </mxGeometry>
        </mxCell>
        <mxCell id="2CXBRSZFTkt7oXH1fWxL-34" value="" style="shape=tableRow;horizontal=0;startSize=0;swimlaneHead=0;swimlaneBody=0;fillColor=none;collapsible=0;dropTarget=0;points=[[0,0.5],[1,0.5]];portConstraint=eastwest;top=0;left=0;right=0;bottom=0;" vertex="1" parent="2CXBRSZFTkt7oXH1fWxL-27">
          <mxGeometry y="90" width="160" height="30" as="geometry" />
        </mxCell>
        <mxCell id="2CXBRSZFTkt7oXH1fWxL-35" value="" style="shape=partialRectangle;connectable=0;fillColor=none;top=0;left=0;bottom=0;right=0;editable=1;overflow=hidden;whiteSpace=wrap;html=1;" vertex="1" parent="2CXBRSZFTkt7oXH1fWxL-34">
          <mxGeometry width="30" height="30" as="geometry">
            <mxRectangle width="30" height="30" as="alternateBounds" />
          </mxGeometry>
        </mxCell>
        <mxCell id="2CXBRSZFTkt7oXH1fWxL-36" value="ciudad" style="shape=partialRectangle;connectable=0;fillColor=none;top=0;left=0;bottom=0;right=0;align=left;spacingLeft=6;overflow=hidden;whiteSpace=wrap;html=1;" vertex="1" parent="2CXBRSZFTkt7oXH1fWxL-34">
          <mxGeometry x="30" width="130" height="30" as="geometry">
            <mxRectangle width="130" height="30" as="alternateBounds" />
          </mxGeometry>
        </mxCell>
        <mxCell id="2CXBRSZFTkt7oXH1fWxL-40" value="Articulos" style="shape=table;startSize=30;container=1;collapsible=1;childLayout=tableLayout;fixedRows=1;rowLines=0;fontStyle=1;align=center;resizeLast=1;html=1;" vertex="1" parent="1">
          <mxGeometry x="440" y="70" width="160" height="120" as="geometry" />
        </mxCell>
        <mxCell id="2CXBRSZFTkt7oXH1fWxL-41" value="" style="shape=tableRow;horizontal=0;startSize=0;swimlaneHead=0;swimlaneBody=0;fillColor=none;collapsible=0;dropTarget=0;points=[[0,0.5],[1,0.5]];portConstraint=eastwest;top=0;left=0;right=0;bottom=1;" vertex="1" parent="2CXBRSZFTkt7oXH1fWxL-40">
          <mxGeometry y="30" width="160" height="30" as="geometry" />
        </mxCell>
        <mxCell id="2CXBRSZFTkt7oXH1fWxL-42" value="PK" style="shape=partialRectangle;connectable=0;fillColor=none;top=0;left=0;bottom=0;right=0;fontStyle=1;overflow=hidden;whiteSpace=wrap;html=1;" vertex="1" parent="2CXBRSZFTkt7oXH1fWxL-41">
          <mxGeometry width="30" height="30" as="geometry">
            <mxRectangle width="30" height="30" as="alternateBounds" />
          </mxGeometry>
        </mxCell>
        <mxCell id="2CXBRSZFTkt7oXH1fWxL-43" value="id_articulo" style="shape=partialRectangle;connectable=0;fillColor=none;top=0;left=0;bottom=0;right=0;align=left;spacingLeft=6;fontStyle=5;overflow=hidden;whiteSpace=wrap;html=1;" vertex="1" parent="2CXBRSZFTkt7oXH1fWxL-41">
          <mxGeometry x="30" width="130" height="30" as="geometry">
            <mxRectangle width="130" height="30" as="alternateBounds" />
          </mxGeometry>
        </mxCell>
        <mxCell id="2CXBRSZFTkt7oXH1fWxL-44" value="" style="shape=tableRow;horizontal=0;startSize=0;swimlaneHead=0;swimlaneBody=0;fillColor=none;collapsible=0;dropTarget=0;points=[[0,0.5],[1,0.5]];portConstraint=eastwest;top=0;left=0;right=0;bottom=0;" vertex="1" parent="2CXBRSZFTkt7oXH1fWxL-40">
          <mxGeometry y="60" width="160" height="30" as="geometry" />
        </mxCell>
        <mxCell id="2CXBRSZFTkt7oXH1fWxL-45" value="" style="shape=partialRectangle;connectable=0;fillColor=none;top=0;left=0;bottom=0;right=0;editable=1;overflow=hidden;whiteSpace=wrap;html=1;" vertex="1" parent="2CXBRSZFTkt7oXH1fWxL-44">
          <mxGeometry width="30" height="30" as="geometry">
            <mxRectangle width="30" height="30" as="alternateBounds" />
          </mxGeometry>
        </mxCell>
        <mxCell id="2CXBRSZFTkt7oXH1fWxL-46" value="articulo" style="shape=partialRectangle;connectable=0;fillColor=none;top=0;left=0;bottom=0;right=0;align=left;spacingLeft=6;overflow=hidden;whiteSpace=wrap;html=1;" vertex="1" parent="2CXBRSZFTkt7oXH1fWxL-44">
          <mxGeometry x="30" width="130" height="30" as="geometry">
            <mxRectangle width="130" height="30" as="alternateBounds" />
          </mxGeometry>
        </mxCell>
        <mxCell id="2CXBRSZFTkt7oXH1fWxL-47" value="" style="shape=tableRow;horizontal=0;startSize=0;swimlaneHead=0;swimlaneBody=0;fillColor=none;collapsible=0;dropTarget=0;points=[[0,0.5],[1,0.5]];portConstraint=eastwest;top=0;left=0;right=0;bottom=0;" vertex="1" parent="2CXBRSZFTkt7oXH1fWxL-40">
          <mxGeometry y="90" width="160" height="30" as="geometry" />
        </mxCell>
        <mxCell id="2CXBRSZFTkt7oXH1fWxL-48" value="" style="shape=partialRectangle;connectable=0;fillColor=none;top=0;left=0;bottom=0;right=0;editable=1;overflow=hidden;whiteSpace=wrap;html=1;" vertex="1" parent="2CXBRSZFTkt7oXH1fWxL-47">
          <mxGeometry width="30" height="30" as="geometry">
            <mxRectangle width="30" height="30" as="alternateBounds" />
          </mxGeometry>
        </mxCell>
        <mxCell id="2CXBRSZFTkt7oXH1fWxL-49" value="precio" style="shape=partialRectangle;connectable=0;fillColor=none;top=0;left=0;bottom=0;right=0;align=left;spacingLeft=6;overflow=hidden;whiteSpace=wrap;html=1;" vertex="1" parent="2CXBRSZFTkt7oXH1fWxL-47">
          <mxGeometry x="30" width="130" height="30" as="geometry">
            <mxRectangle width="130" height="30" as="alternateBounds" />
          </mxGeometry>
        </mxCell>
        <mxCell id="2CXBRSZFTkt7oXH1fWxL-53" value="Ordenes" style="shape=table;startSize=30;container=1;collapsible=1;childLayout=tableLayout;fixedRows=1;rowLines=0;fontStyle=1;align=center;resizeLast=1;html=1;" vertex="1" parent="1">
          <mxGeometry x="40" y="70" width="160" height="300" as="geometry" />
        </mxCell>
        <mxCell id="2CXBRSZFTkt7oXH1fWxL-57" value="" style="shape=tableRow;horizontal=0;startSize=0;swimlaneHead=0;swimlaneBody=0;fillColor=none;collapsible=0;dropTarget=0;points=[[0,0.5],[1,0.5]];portConstraint=eastwest;top=0;left=0;right=0;bottom=0;" vertex="1" parent="2CXBRSZFTkt7oXH1fWxL-53">
          <mxGeometry y="30" width="160" height="30" as="geometry" />
        </mxCell>
        <mxCell id="2CXBRSZFTkt7oXH1fWxL-58" value="" style="shape=partialRectangle;connectable=0;fillColor=none;top=0;left=0;bottom=0;right=0;editable=1;overflow=hidden;whiteSpace=wrap;html=1;" vertex="1" parent="2CXBRSZFTkt7oXH1fWxL-57">
          <mxGeometry width="30" height="30" as="geometry">
            <mxRectangle width="30" height="30" as="alternateBounds" />
          </mxGeometry>
        </mxCell>
        <mxCell id="2CXBRSZFTkt7oXH1fWxL-59" value="id_orden" style="shape=partialRectangle;connectable=0;fillColor=none;top=0;left=0;bottom=0;right=0;align=left;spacingLeft=6;overflow=hidden;whiteSpace=wrap;html=1;" vertex="1" parent="2CXBRSZFTkt7oXH1fWxL-57">
          <mxGeometry x="30" width="130" height="30" as="geometry">
            <mxRectangle width="130" height="30" as="alternateBounds" />
          </mxGeometry>
        </mxCell>
        <mxCell id="2CXBRSZFTkt7oXH1fWxL-60" value="" style="shape=tableRow;horizontal=0;startSize=0;swimlaneHead=0;swimlaneBody=0;fillColor=none;collapsible=0;dropTarget=0;points=[[0,0.5],[1,0.5]];portConstraint=eastwest;top=0;left=0;right=0;bottom=0;" vertex="1" parent="2CXBRSZFTkt7oXH1fWxL-53">
          <mxGeometry y="60" width="160" height="30" as="geometry" />
        </mxCell>
        <mxCell id="2CXBRSZFTkt7oXH1fWxL-61" value="" style="shape=partialRectangle;connectable=0;fillColor=none;top=0;left=0;bottom=0;right=0;editable=1;overflow=hidden;whiteSpace=wrap;html=1;" vertex="1" parent="2CXBRSZFTkt7oXH1fWxL-60">
          <mxGeometry width="30" height="30" as="geometry">
            <mxRectangle width="30" height="30" as="alternateBounds" />
          </mxGeometry>
        </mxCell>
        <mxCell id="2CXBRSZFTkt7oXH1fWxL-62" value="fecha" style="shape=partialRectangle;connectable=0;fillColor=none;top=0;left=0;bottom=0;right=0;align=left;spacingLeft=6;overflow=hidden;whiteSpace=wrap;html=1;" vertex="1" parent="2CXBRSZFTkt7oXH1fWxL-60">
          <mxGeometry x="30" width="130" height="30" as="geometry">
            <mxRectangle width="130" height="30" as="alternateBounds" />
          </mxGeometry>
        </mxCell>
        <mxCell id="2CXBRSZFTkt7oXH1fWxL-67" value="" style="shape=tableRow;horizontal=0;startSize=0;swimlaneHead=0;swimlaneBody=0;fillColor=none;collapsible=0;dropTarget=0;points=[[0,0.5],[1,0.5]];portConstraint=eastwest;top=0;left=0;right=0;bottom=0;" vertex="1" parent="2CXBRSZFTkt7oXH1fWxL-53">
          <mxGeometry y="90" width="160" height="30" as="geometry" />
        </mxCell>
        <mxCell id="2CXBRSZFTkt7oXH1fWxL-68" value="" style="shape=partialRectangle;connectable=0;fillColor=none;top=0;left=0;bottom=0;right=0;editable=1;overflow=hidden;" vertex="1" parent="2CXBRSZFTkt7oXH1fWxL-67">
          <mxGeometry width="30" height="30" as="geometry">
            <mxRectangle width="30" height="30" as="alternateBounds" />
          </mxGeometry>
        </mxCell>
        <mxCell id="2CXBRSZFTkt7oXH1fWxL-69" value="id_cliente" style="shape=partialRectangle;connectable=0;fillColor=none;top=0;left=0;bottom=0;right=0;align=left;spacingLeft=6;overflow=hidden;" vertex="1" parent="2CXBRSZFTkt7oXH1fWxL-67">
          <mxGeometry x="30" width="130" height="30" as="geometry">
            <mxRectangle width="130" height="30" as="alternateBounds" />
          </mxGeometry>
        </mxCell>
        <mxCell id="2CXBRSZFTkt7oXH1fWxL-71" value="" style="shape=tableRow;horizontal=0;startSize=0;swimlaneHead=0;swimlaneBody=0;fillColor=none;collapsible=0;dropTarget=0;points=[[0,0.5],[1,0.5]];portConstraint=eastwest;top=0;left=0;right=0;bottom=0;" vertex="1" parent="2CXBRSZFTkt7oXH1fWxL-53">
          <mxGeometry y="120" width="160" height="30" as="geometry" />
        </mxCell>
        <mxCell id="2CXBRSZFTkt7oXH1fWxL-72" value="" style="shape=partialRectangle;connectable=0;fillColor=none;top=0;left=0;bottom=0;right=0;editable=1;overflow=hidden;" vertex="1" parent="2CXBRSZFTkt7oXH1fWxL-71">
          <mxGeometry width="30" height="30" as="geometry">
            <mxRectangle width="30" height="30" as="alternateBounds" />
          </mxGeometry>
        </mxCell>
        <mxCell id="2CXBRSZFTkt7oXH1fWxL-73" value="cliente" style="shape=partialRectangle;connectable=0;fillColor=none;top=0;left=0;bottom=0;right=0;align=left;spacingLeft=6;overflow=hidden;" vertex="1" parent="2CXBRSZFTkt7oXH1fWxL-71">
          <mxGeometry x="30" width="130" height="30" as="geometry">
            <mxRectangle width="130" height="30" as="alternateBounds" />
          </mxGeometry>
        </mxCell>
        <mxCell id="2CXBRSZFTkt7oXH1fWxL-63" value="" style="shape=tableRow;horizontal=0;startSize=0;swimlaneHead=0;swimlaneBody=0;fillColor=none;collapsible=0;dropTarget=0;points=[[0,0.5],[1,0.5]];portConstraint=eastwest;top=0;left=0;right=0;bottom=0;" vertex="1" parent="2CXBRSZFTkt7oXH1fWxL-53">
          <mxGeometry y="150" width="160" height="30" as="geometry" />
        </mxCell>
        <mxCell id="2CXBRSZFTkt7oXH1fWxL-64" value="" style="shape=partialRectangle;connectable=0;fillColor=none;top=0;left=0;bottom=0;right=0;editable=1;overflow=hidden;whiteSpace=wrap;html=1;" vertex="1" parent="2CXBRSZFTkt7oXH1fWxL-63">
          <mxGeometry width="30" height="30" as="geometry">
            <mxRectangle width="30" height="30" as="alternateBounds" />
          </mxGeometry>
        </mxCell>
        <mxCell id="2CXBRSZFTkt7oXH1fWxL-65" value="ciudad" style="shape=partialRectangle;connectable=0;fillColor=none;top=0;left=0;bottom=0;right=0;align=left;spacingLeft=6;overflow=hidden;whiteSpace=wrap;html=1;" vertex="1" parent="2CXBRSZFTkt7oXH1fWxL-63">
          <mxGeometry x="30" width="130" height="30" as="geometry">
            <mxRectangle width="130" height="30" as="alternateBounds" />
          </mxGeometry>
        </mxCell>
        <mxCell id="2CXBRSZFTkt7oXH1fWxL-75" value="" style="shape=tableRow;horizontal=0;startSize=0;swimlaneHead=0;swimlaneBody=0;fillColor=none;collapsible=0;dropTarget=0;points=[[0,0.5],[1,0.5]];portConstraint=eastwest;top=0;left=0;right=0;bottom=0;" vertex="1" parent="2CXBRSZFTkt7oXH1fWxL-53">
          <mxGeometry y="180" width="160" height="30" as="geometry" />
        </mxCell>
        <mxCell id="2CXBRSZFTkt7oXH1fWxL-76" value="" style="shape=partialRectangle;connectable=0;fillColor=none;top=0;left=0;bottom=0;right=0;editable=1;overflow=hidden;" vertex="1" parent="2CXBRSZFTkt7oXH1fWxL-75">
          <mxGeometry width="30" height="30" as="geometry">
            <mxRectangle width="30" height="30" as="alternateBounds" />
          </mxGeometry>
        </mxCell>
        <mxCell id="2CXBRSZFTkt7oXH1fWxL-77" value="id_articulo" style="shape=partialRectangle;connectable=0;fillColor=none;top=0;left=0;bottom=0;right=0;align=left;spacingLeft=6;overflow=hidden;" vertex="1" parent="2CXBRSZFTkt7oXH1fWxL-75">
          <mxGeometry x="30" width="130" height="30" as="geometry">
            <mxRectangle width="130" height="30" as="alternateBounds" />
          </mxGeometry>
        </mxCell>
        <mxCell id="2CXBRSZFTkt7oXH1fWxL-78" value="" style="shape=tableRow;horizontal=0;startSize=0;swimlaneHead=0;swimlaneBody=0;fillColor=none;collapsible=0;dropTarget=0;points=[[0,0.5],[1,0.5]];portConstraint=eastwest;top=0;left=0;right=0;bottom=0;" vertex="1" parent="2CXBRSZFTkt7oXH1fWxL-53">
          <mxGeometry y="210" width="160" height="30" as="geometry" />
        </mxCell>
        <mxCell id="2CXBRSZFTkt7oXH1fWxL-79" value="" style="shape=partialRectangle;connectable=0;fillColor=none;top=0;left=0;bottom=0;right=0;editable=1;overflow=hidden;" vertex="1" parent="2CXBRSZFTkt7oXH1fWxL-78">
          <mxGeometry width="30" height="30" as="geometry">
            <mxRectangle width="30" height="30" as="alternateBounds" />
          </mxGeometry>
        </mxCell>
        <mxCell id="2CXBRSZFTkt7oXH1fWxL-80" value="articulo" style="shape=partialRectangle;connectable=0;fillColor=none;top=0;left=0;bottom=0;right=0;align=left;spacingLeft=6;overflow=hidden;" vertex="1" parent="2CXBRSZFTkt7oXH1fWxL-78">
          <mxGeometry x="30" width="130" height="30" as="geometry">
            <mxRectangle width="130" height="30" as="alternateBounds" />
          </mxGeometry>
        </mxCell>
        <mxCell id="2CXBRSZFTkt7oXH1fWxL-82" value="" style="shape=tableRow;horizontal=0;startSize=0;swimlaneHead=0;swimlaneBody=0;fillColor=none;collapsible=0;dropTarget=0;points=[[0,0.5],[1,0.5]];portConstraint=eastwest;top=0;left=0;right=0;bottom=0;" vertex="1" parent="2CXBRSZFTkt7oXH1fWxL-53">
          <mxGeometry y="240" width="160" height="30" as="geometry" />
        </mxCell>
        <mxCell id="2CXBRSZFTkt7oXH1fWxL-83" value="" style="shape=partialRectangle;connectable=0;fillColor=none;top=0;left=0;bottom=0;right=0;editable=1;overflow=hidden;" vertex="1" parent="2CXBRSZFTkt7oXH1fWxL-82">
          <mxGeometry width="30" height="30" as="geometry">
            <mxRectangle width="30" height="30" as="alternateBounds" />
          </mxGeometry>
        </mxCell>
        <mxCell id="2CXBRSZFTkt7oXH1fWxL-84" value="cantidad" style="shape=partialRectangle;connectable=0;fillColor=none;top=0;left=0;bottom=0;right=0;align=left;spacingLeft=6;overflow=hidden;" vertex="1" parent="2CXBRSZFTkt7oXH1fWxL-82">
          <mxGeometry x="30" width="130" height="30" as="geometry">
            <mxRectangle width="130" height="30" as="alternateBounds" />
          </mxGeometry>
        </mxCell>
        <mxCell id="2CXBRSZFTkt7oXH1fWxL-85" value="" style="shape=tableRow;horizontal=0;startSize=0;swimlaneHead=0;swimlaneBody=0;fillColor=none;collapsible=0;dropTarget=0;points=[[0,0.5],[1,0.5]];portConstraint=eastwest;top=0;left=0;right=0;bottom=0;" vertex="1" parent="2CXBRSZFTkt7oXH1fWxL-53">
          <mxGeometry y="270" width="160" height="30" as="geometry" />
        </mxCell>
        <mxCell id="2CXBRSZFTkt7oXH1fWxL-86" value="" style="shape=partialRectangle;connectable=0;fillColor=none;top=0;left=0;bottom=0;right=0;editable=1;overflow=hidden;" vertex="1" parent="2CXBRSZFTkt7oXH1fWxL-85">
          <mxGeometry width="30" height="30" as="geometry">
            <mxRectangle width="30" height="30" as="alternateBounds" />
          </mxGeometry>
        </mxCell>
        <mxCell id="2CXBRSZFTkt7oXH1fWxL-87" value="precio" style="shape=partialRectangle;connectable=0;fillColor=none;top=0;left=0;bottom=0;right=0;align=left;spacingLeft=6;overflow=hidden;" vertex="1" parent="2CXBRSZFTkt7oXH1fWxL-85">
          <mxGeometry x="30" width="130" height="30" as="geometry">
            <mxRectangle width="130" height="30" as="alternateBounds" />
          </mxGeometry>
        </mxCell>
        <mxCell id="2CXBRSZFTkt7oXH1fWxL-88" value="2FN" style="shape=note;size=20;whiteSpace=wrap;html=1;" vertex="1" parent="1">
          <mxGeometry x="240" y="10" width="100" height="40" as="geometry" />
        </mxCell>
        <mxCell id="2CXBRSZFTkt7oXH1fWxL-89" value="1FN" style="shape=note;size=20;whiteSpace=wrap;html=1;" vertex="1" parent="1">
          <mxGeometry x="40" y="10" width="100" height="40" as="geometry" />
        </mxCell>
        <mxCell id="2CXBRSZFTkt7oXH1fWxL-90" value="3FN" style="shape=note;size=20;whiteSpace=wrap;html=1;" vertex="1" parent="1">
          <mxGeometry x="440" y="10" width="100" height="40" as="geometry" />
        </mxCell>
        <mxCell id="2CXBRSZFTkt7oXH1fWxL-93" value="" style="shape=image;imageAspect=0;aspect=fixed;verticalLabelPosition=bottom;verticalAlign=top;image=data:image/png,iVBORw0KGgoAAAANSUhEUgAAAhIAAADYCAYAAAC+0QpEAAAAAXNSR0IArs4c6QAAAARnQU1BAACxjwv8YQUAAAAJcEhZcwAADsMAAA7DAcdvqGQAAFu8SURBVHhe7ZwJ2E3l2sfP8DUnKUXGDBEREhkzREqlKGQKhRLROQqpL6JMkTLEaaBBKmUoShQSMtSHDOlDmTJnpgznnOe7frf9vN+yz95rrXe/e7/vWty/61qXNTzr2c943//nftbrT0ZRFEVRFCVBVEgoiqIoipIwKiQURVEURUkYFRKKoiiKoiSMCglFURRFURJGhYSiKIqiKAnjW0i0aNHCVK9e3fz666+RO4qiKIqinO34EhLjxo0z55xzjvnqq68idxRFURRFUXwIidWrV5uBAweaPn36mC+++ML8+9//jjwxZsSIEaZr165y9OjRw4waNcps375dnq1fvz7tWc+ePc3YsWPNwYMH5Rk4nzuPGTNmyMH5nDlzIqmNWblyZdpzcL5jD8oDx44dMxMnTjT9+vWTsvOuoiiKoijJx1VIjBw50vz5z382f/nLX8x5551n/vSnP5n77rvP/Otf/5LnNWrUkHv58+c3l112mZxnz55dxMfcuXPlOlu2bCZnzpxynjt3brNixQp51/m8YMGCacewYcNM79695VmBAgXM0aNHJf2UKVPkHs+Ac6IkznebNm0q6cuUKSPPL7nkEvPXv/5V6vCPf/xD3lMURVEUJXnEFRIbN24UJ1y4cGGJMrDKb9KkiThotjrACon9+/fL9csvvyzXRAesUOAcuD733HNNyZIlRYhEP3dihQRHr1695F4sIYFgiGbSpEny7IEHHpDoyc6dO0VQXHnllZEUiqIoiqIki7hCYvjw4eKQBw8eHLljzPLly+VegwYN5DpaSHz66ady/dhjj8UUCo0aNZJ7y5YtS3vetm1bES0cmzdvlnRWSOD8ER9r166NKSRKlCiR9i7H8ePHzZIlS+QZgmXx4sWSVlEURVGU1BBXSFhnzrcGln379sm98uXLy7UVEs2aNTONGzc2OXLkMBdccMFpQsEpJPiOgntTp05Ne+482BYB+9tsrVx88cWmTp06MYVE9IHQAUQQ73GvePHi8u3GP//5T3mmKIqiKEryiCsk+FARR2y3MYAtDu5Vq1ZNrq2QqFq1qsmbN6+cv//++/IslpDo1KmT3Js5c2ba83vvvVfOOebPny/prJBAPBAR4bx58+byr1NIFClSJO1djsOHD8szOHDggHwXceONN0paIh+KoiiKoiSXuEJi2rRp4oBbtWoVuWPM+PHj5V6XLl3k2rm1gSPnvF69evLMXlshcfLkSVOsWDH5QHLPnj3/8dyJU0icOHFCtjC45nAKiVjfSDz//PNyf9GiRXJNJIItkvPPP1+uFUVRFEVJHnGFBI7f/vVDx44dzXPPPSd/mXHhhReadevWSZrobyTs9YIFC9KEQt26deXPMu2zv//975LW+Zyohz3YnnAKCZg9e7ZccziFBH8t4nyXPw2dPn26PCtVqpRscbCdwl9tcK0oiqIoSnKJKyRg165d8pcarOZxxjfddJOIBEu0kLDioGbNmmnn9uBPOQcNGpT2p6PRz+2BUIgWEsCfdtrn4HzHHpQH3nvvPVO6dGmJfvDNBuXhT1IVRVEURUkurkJCURRFURTFDRUSiqIoiqIkjAoJRVEURVESRoWEoiiKoigJo0JCURRFUZSEUSGhKIqiKErCqJBQFEVRFCVhVEgoiqIoipIwKiQURVEURUkYFRKKoiiKoiSMCglFURRFURJGhYSiKIqiKAmjQkJRFEVRlIRRIaEoiqIoSsKokFAURVEUJWFUSCiKoiiKkjAqJBRFURRFSZiYQuJPf/qTHnrooYceeuihx2nHP//5z4hS+H/iComzibOtvolytrTTmVjPP//5z+bf//535EqJRdjbiPL/61//ilydOfzlL385I+sVTRjq+de//jW1QmL79u1mypQp5ujRo5E76WPOnDnmf/7nfyJXmUsqHUdW1ivZJNJOK1euNDNnzoxcxWb69Olmw4YNMkB/++23yN2sI9HxELR6OEnUSe7atSty5o6ffoYTJ06Indi8eXPkTnDIqJBYuHChmTt3buTq/3HaAL/tmQipEBKM41iOIx4HDhyQ/uXfZJHZDjZWne349hofjO+pU6cmNL6DUE8vkiokmjRpYv77v/87cnUKBg/vbdy4Ua7Hjx9v6tWrZ+rWrWveeOMNuedGmTJlTOvWrSNXmYtbfX/66Scpm/PAMPglK+uVbNzaiTahrtu2bYvcOUXXrl1NwYIF5Zyx0aZNG3PzzTebDh06iPiE7Nmzm2HDhpnBgwebCy+8MN2TKdmOyWv8p6Iee/bsyZAQ98LLSX799dfm7rvvNrVq1TJ9+vQxx48fN0uXLpX3Fi1aFEkVH9vPXoZ2//79kufYsWMjd4KDVxvR723btk3rd+dYX7t2rbn44otjiqmyZcuKDViyZInv9kwE8vYac5988omUh7LEw+kIqdOAAQN8C6zly5eLQ0zm4snLwTJnevXqZWrUqGHuu+++hNrXq86PP/64ufrqqz3bl/FNeRnfftvM4lVPxh02tnz58jJXEa3p/Q0n2bJlS1ffQlKFRLRzpCBOIfHuu+/KeZcuXcyTTz4pDTR69OhI6v+E97PS4brVl4nB8x49ephx48bJkR6nZeuVkQ4PCm7tFC0kgTpbB3Ps2DGZiBUrVjSvvPKKuf766025cuUkjXXAO3fujLmic+Pw4cPyu6NGjTInT56M3M0YbvVMVT2mTZsmv/vDDz9E7iQXNye5atUqc+6555pmzZqZF1980eTIkUMMJ2KCKAv/uuHs53i/ATwLq5Cg3wsVKvQf/W4NP+N+xYoVcu6E/KyQIA8/7ZkofoTE7bffLuMMIRSrrswn7PXIkSNldY3A3LFjR+SpN1khJJo3b25y585thgwZYho2bChCYMuWLZGn3kTXed68eafVmXbyIyTs+CavVAgJ5mWDBg1kYX7nnXea888/P131jCa6nn5IiZDAcN92222SnkbmXyZUlSpVRB1a7rjjDpl4GFfScM77TCqM76WXXir/WofbuXNnMWwMiFdffVU6h/cqVKhg/uu//suULFlS7iULt/paIRHtGN566y3pWBqWVQoDgI7Jnz+/pCcSc+jQIWmrwoULS12uuOIK891335kff/xR7pOuaNGiZvXq1ZFcg41bOzmFBAf1oq/y5s0rDubzzz+X53a1MHv2bBkjrOatA+bgHGK1L2123XXXmUsuucRcdtllkhd5kC8HfRTrvfTiVs+M1mPv3r3yfvRYtnXgiDUHMoqbk+zevbusTnB0MHToUIk6MvZ5b9myZWlzHqxjpJ+vueaa0/qZ33jmmWckIkP5//73v8s7vXv3lnTWToRNSNDvPP/222/lmn6vWbOmRCUw7NgwHEHjxo3N77//LraNe07bRjva9iRykTNnTnEG2AxWmBjojh07SrvRfs8//3zc8sSCvN3GO2OUcXjvvfdKmSgnUI/ixYvL79KHdhwSZaT8L730ktSzcuXKcp+5Tajf6VztOXWjHRASRNnIm3fy5MkjbZKe+ljcHCwigHHVv39/yZv5xW9+9tlnZvLkyeaqq66S369du7akRfw5bQjbUaSn7UhHvzJfqfMvv/xiihUrdtr4phxE4y+66CJpr7/97W/yu0TxzjnnnNPGd3rr6kdIPPvss5LvggULJP0XX3xxWv+xtfrYY4+Z8847T2wHCyzSjxgxQuY4ZbRltvXcvXu3RCJpA/qJRU28sjN+ki4k6CjSMsloSM4xLjR4+/btI6lPhT0ZkFZIEKVgoCEo2P5Ys2aNdDh5zpo1S9J8+umnZuDAgVLxX3/9Ve498cQT5quvvpJzHFeyIL94WCGRK1cuqVfp0qVFINBRTz31lCh2nlNu2gWDwGRioI0ZM0buEZJat26dqGYm3Pvvvy//sl9Kxz366KORXws2bu3kFBJEouhPVrqsgGg3Ijk8Z7UeTbQDdmtf2pLtJvJnXAHPyT/ee+mF9+KR0XpMnDhR/o0ey3Zu0H6x5gBGMCNgJOIZB+bdtdde+x/PvYSE7Weciu1nnBPbPjhKohvUg3GOMcYIYvjIM2xCgn7nefQKDhGIAX/66afN4sWLpb8x3rQXto1FAnOc9nIKiRtuuCFtLOPcsBs4Wp7zL+KRc2yjX0jv5ojYcsN5IgpwCBMmTJD64oiKFCliPvjgA3PkyBFxUNYRWmdjI07Uh6jM/fffL/fchAQC1doB6o8NdStfPNwcLPOF59jU6L7DJw0fPly26Ejz4Ycfytil3dmKQhwwhnkvVp15Rt8RJaxfv77Un20UxjfjmPFNm2MLmKMIjBkzZpyWV3pwqydQLsZVq1atROCwMOU7B0SA7T+2aMiHf7EdjE0EEeV74YUXZLeA5yxmbT3xx3Ye236KJRYgJUICg4myA6cjQSAwMSxUnFW501gCxpaKgM2TjicNz1BUnKO++JfJbFdvnCcL8ouHFRLUlfLPnz9fGpx7iAXKyTlhMa5J58RpgO05RhZVX6JECVmR2OdBx62dnP1P3xOCA2uAPvroI3nOBAYmH+8cPHjwPxxwvPaN1ZbAc8ZDvPfSC+/FI6P1YJXJv9Fj2Tk3Ys0BjHFGwODFM2ydOnUS42Gf4yxY0XkJCdvPvGf7mdAwWyQYabs6sw4U50KdOQ+bkKDfeY4BBtvvRCFtGwERJtqChRORHfKz7WXbgX9x6HZ/+p577pG2xDHxHvcQX6RlseYX0rs5IlbiVtQwthA6/BZCgnu27rGcKlFlymjTgFdEgvC7fQcBTfmIGKQXNwdL1IPnCC9+ByeHE/3555+lPalvqVKlZBxSJ9sXpEXA2fNYdaZfGN/O+rEtxfjOly9f2vimrrz//fffy/h25pUe3OoJlIvoJ4KcscUCGxAS1IN3iTzQzk7bQWSJvCmnE1tP20+8Tz+RNt7H4pkakSCMiTLnOc+oEOGUaCFhIxJO1Y4aJw0fazJpX3vttdMMblYJCcpuoZGpH+Fn1B7OCqVKuzRq1EhWGVWrVhWVHMv5sY/HBzNbt26VsKZ9HnTc2skpJJwrVavkCZ9dcMEFpl27dtKmLVq0EAfLSptB73TAbu0b3ZbA7zK5mFix3ksvbvXMaD1YDZJ/9Fi2EQvmS6w5kFEwLvEMm/09vmNi9UbUDYPlFBKs4ggPM7YRCbS97Wfnio3vBHgHgzRo0CDJlw/7wh6RoN/ZbqDfaY+WLVtKv/O9FKs+VqO0HQsDZ0QCAWjbyykkmP+0JxEHohMYckLKPGdVSzST82RFJNhS5fmDDz4o9pmtK5wCNiiWkKA+RCess0EcsRj83//9X0nbrVs36U8EEaIaZ0T/O4UEK13sOnVgWy8VEQkgQsJWIXWkrNSTLQrKxhi12wBeQiK6zjYiwZhGSFE/5gRpiW4wvvktIlGZFZGgzaPzdQoJFgDk884770i7v/766zJ2KR/lZf7RBvSjrSfRUeqJH7b9lKkRCb6RwICQHlHAvzgSVBsTDiNKBfgYBoMeLSQwmhhcVLh1qDQSFcNYMylZLdl95aAICXjvvfekwWlYDALK2PmNBJNz3759MZ0fTpdIDh1ZoEABc9ddd8nzoOPWTk4hgXG130gQdWECAoaS+pKOUByDHqIdMMRq31htCYg3JjT5x3ovvbjVEzJaD96LHsuMFb43wAjwp3PRcyARA+yE9nEzbP369ZMxSbpq1arJVpxTSFAPHOnll18u4oG2p5/tNxK2n/nOgu+DqBd9xL+s1J577jlJZ/dywyYkgH6njrbfEWDg/EaCvxpgewfbxj2nbXMKCbav+EaCNmV8ICQw0M5vJOiT9Dgj8o43ThCzjMk//vhDrol4MCb5tgDRSPnsb/ENBXVha43y42yc30ggKHDaOB5W5pSXUHu0kGCsYwd5hzFDe6WnPhbycxv/jNVKlSrJ7yAeCOHzO/wlB/6HbTt8ER9jxhMSts78VYut86ZNm9K+kbDjm/a79dZbpa3t+KYt+vbtK7/lHN/pratXPf0ICZ4h4Bg/2A62zRlX9hsJ6sIYI60VEs5vJOgnxnm8sjNmkiYkzjTOtvomytnSTmdiPb2cpJK5bUS0jtUrH8cRsUAsZvS33YREmPFysGcKYainCgkXVEj4Q4VEeFEh4U1mttGkSZMknMxYq169umwxZBQVEuFGhUTIUSHhDxUS4UWFhDdhbyMVEuFGhUTIUSHhDxUS4UWFhDcqJIKJCongoELCBRUS/lAhEV5USHijQiKYqJAIDiokXFAh4Q8VEuFFhYQ3KiSCiQqJ4KBCwgUVEv5QIRFeVEh4o0IimKiQCA4qJFxQIeEPFRLhRYWENyokgokKieCgQsIFFRL+UCERXlRIeKNCIpiokAgOKiRcUCHhDxUS4UWFhDcqJIKJCongoELCBRUS/lAhEV5USHijQiKYqJAIDiokXFAh4Q8VEuFFhYQ3KiSCiQqJ4KBCwgUVEv5QIRFeVEh4o0IimKiQCA4qJFxQIeEPFRLhRYWENyokgokKieCgQsIFFRL+UCERXlRIeKNCIpiokAgO6RYSeuihhx566KGHHs5DIxJxONvqmyhnSzudifXUiIQ3GpEIJhqRCA66teGCCgl/qJAILyokvFEhEZuZM2dGzrIGFRLBIalCYuHChaZBgwamVq1a5p133pF7x48fNz169DA333yzadeundm/f7/cnzZtmrntttsk/YoVK+QezJ8/3zz00EPmp59+itzJOrzqO27cOHPLLbeYO+64wyxZskTuLViwwNx5552mbt26ZtKkSXLPsnjxYjN06FA5HzRokKldu7Zp06aN2bdvn9yLlZ9l5MiRZt68eWbbtm3mgQcekPbs2bNnWufFyi9Wf0CstBnBq53Wr19vnn76afPBBx9E7hizdu1a07hxY6nvxIkTI3djpw0KXvUsU6aMmT59euTqFAMGDDBNmjSJXLlz4sSJNOO8aNEiM3DgQDlPJW5OkvvDhw+XscyYnjFjRuSJP5z1OXLkiGnZsmUoHbKXkBg7dqzMsXvuucesXLlSbFfZsmVlPNjjvffekzzo0xo1aphWrVqZ7du3y/vM4VdeecXceuutKbF7XkLClrVKlSqmW7du0ld+KFSoUJY6OC8Hiy2+6667ZPx+/PHHoRx74FVP7HysemLf7fjDBjnzwE7dfvvt4h+WL18u9w4dOmQ6deok4/PZZ59NV98mTUhgNPLmzWtWr15tdu7caa666iqzZcsWMUStW7eWwYmD6N69uzl8+HDacxqhdOnSkgdpW7RoYa655pq0ymUlbvVdtmyZlBtHjIMvUqSIdGDu3LnNqlWrzNatW6WOBw4ciLxhTNu2bc33339v5syZY6pWrSptgqPp3LlzzPws5FuxYkVz7Ngxc/fdd5vXX39dzhFi7777bsz84vVHrLQZxa2dEE8YyDp16phhw4ZF7hoRQp988onZtWuXufrqq6WM8dIGBS8hwWRiMlsQ0YwHJrIfNm3aZPLnzy8Teu/evTKOUo2bk5w6daqpXr269A0Ojn76+eefI0+9oT4FChQwBw8eFKPEIiGMuLURwqFUqVJmz549IrRuuumm/0hbuXJls2HDBvPll19Ke7KYYu516NBB0rLQevDBB9OERbLxEhI5cuSQ59hlFnG9evWKW1+wz4IsJChjnjx5pH+wxdjCZCyasgI/9fzhhx/+o57FixcX+8p4w6ZY6GfSMT/xv9gn8u/du7d54oknxDfgZz766CPXceAkaULi5MmT4ggsFG7z5s2Rq1OMHj3aPP744xKBqFevXuSuMfny5TN//PFH5MqIIgq6kMBw2NUDHVe4cGE5t9AeBQsWNL/99ptc05E4cHj55ZfFkAAGBuPjlt/s2bOl3eC7774TEQFdunSRSEOs/OL1R6y0GcXLwQKD1CkOcLAWVqrO1W502qDgVU8mNKs7oirw4YcfiiiyQoKI0/XXXy+OB2MNiGwEZKVKlUz9+vXNBRdcIH09ZcoUeQaMo0aNGolhYNWbTNycJJEiBJ81QhhlBE68ehBduuGGG0yJEiXEgDnrgzFDiPBbsd5HSBctWlTGY7ly5dL6v0+fPqZkyZKmWLFiMnazArc2ckKUjbI707IooO+4980334iQYHFBVJB2sYIf29ivX7//sJnJwK+QAPqGaAnlpTz0J+0/efJkuffoo4/KIocITK5cuVzzTTV+Q/7YQkTP7t27I3fCRaL1ZPHIOGOBjpi34H9ZhNo8EftHjx6Vcfrtt99KP7/55psicJ1j2Y2UfCMxZswY07x588jVqXA1hjJnzpyigubOnSuKx4KhtVseEAYhYaGhmzVrZl577bXIHSORF4w/jt7C8xEjRsi501FSb+toIFZ+tGX06tRGMH7//XfX/MDZH15pEyERIZE9e/bImTFdu3YVx2kJq5CgTqNGjTJPPvmkXLN9hKq3bUz4mgmNULz44ovlHg6Y+0B/MG4gWkiw4gCccTJXrm5OEsOA6CRC2LRpUxGx4KxHtmzZ5H1nPQipTpgwQepjxYPzPNb7GDG7xcWWHf2PcKHtEM4YOt5n1ZXZ+BESiKbLLrtMQstO2KZEQAARKiKLCELqTf1+/fVXc84550ibsH157bXXikNIJl5CArFHKJvVKH3NlgDjDVFEWWhzxAQ2mXvUg/7EUQVdSDzzzDMybh577DHPPgwqidSTOYPNf+uttyQSzhaGzePrr7+WBYm9pk9ZICAO8StANBKh67fNki4kPvvsM1OtWjUJjwCODtWN4XjhhRdMx44dZaXMnqsFFYWhsIRJSCAa2FcCGp3VGx3E6gSjwHYC2JAmsE86ZMgQOWcFUqFCBTkHZ35AB9MeTjZu3Cgr3x9//FGu3fKL7g+3tImSiJC44oorImentnwopyXMQoL+J5q0Zs0acRqMYysk+vbtK5OVFR/OA3DAVkS5CQk7dsiL/k8Wbk6SOcncZTwTlmflwtZGdD1431kPhCErW6d4cJ7Hep+VL4sMoO85EBYPP/xwWvkQG6zwMxu3NqJ9sHE411mzZom4t2kR/4wBe02bPPLII3JNexKtwk44t0OYj7/88oucJwsvIYGoYcuTeccihrLQ9kQNsT0clJWoBFswtqxB39pw2mKiZHZ8hY301BPBF11PxODll1+elgff3/FNhb0mwsR2B2KYxQJ5EulmQWT72oukCgn2W5g4zhASoUkMBzDRGjZsKGF8jCOqiRAoWxtOwiIkMHaoPtuAGBU6zDptPl5C2bPycEZomJB8aAh8kHn//ffLeXR+QFjKGZ2gbcuXL3/atkW8/GL1R7y0GSERIUFoG2fLQOXc+ZFZmIUEtG/f3lx33XXmjTfeOE1IXHTRReJwEIfnn3++3IsWEnwjAUEQEqxImL9AGrbmcDhEU5i71IPVLM/iCQnEB8+dQiLW+4gE+3GyMyKBYLYRCQRa0CISrO7Y0uE5Bp3tLZuWyIzzo2Hq9Pe//12eM3+J0lI3HDJ2EEGCLXR+V5UMvISE3drA4bD4wZnY6APlo7x8/EtI3EYp6E+Ehlu+qcbNwWKLWazQJ8BiyvlRf5hIpJ74HRak9B32win68L9cM94Yd8xRnjFviajyDtF0Itl2LHuRVCHBXh/Kz6pYjMmOHTtMzZo1xaniAJcuXSpp+/fvL3ukpHf+RQGEQUisW7dOnvMhla0vZX711VfF2GMAbUfSKXznYKHzEVS0B06Ujo+XH9d2kAAfoxJStGno/Fj5Qaz+iJc2I3iNC4gWB1988YWoZ9tOTsIuJOg3znF+nFshQTQOUcBkx3gziZ0OmMlMWsRkEIQEBocQKM6DcYRAwolE14OPMWMJCepD/1IftjGskGCfPfp92onvIHCuiDDb//YbCRxcEL+RoI58oEgkAXvG3jIgeNgmYL5ZEE72OxLq9NVXX8l9Vv9sd1DHl156ybfx9otfIQFsxVlhRHSUfmcxMnjwYLnHx9l8y0JECdHklm+q8Qr5890J48/amKwsa0ZITz2ZW6TFqRM9YqwxDhlj9B/zjudsWRI9o3/ffvtteUaEmr7mwF+kR9Cm5BuJM4Vk1ZeOTsQ4sB00fvz4yFVwOVvGxZlYTzcnmZkQzrdiib9m4E8qg0JQ2ihRvIREWPFysGcKyaonET62qFLRZiokXDjb6psoKiTCS1CcJBG7G2+8UaIf/H273R4MAiokgokKifRBhJSoWCpQIeGCCgl/qJAIL2F3kpmBColgokIiOKiQcEGFhD9USIQXFRLeqJAIJiokgoMKCRdUSPhDhUR4USHhjQqJYKJCIjiokHBBhYQ/VEiEFxUS3qiQCCYqJIKDCgkXVEj4Q4VEeFEh4Y0KiWCiQiI4qJBwQYWEP1RIhBcVEt6okAgmKiSCgwoJF1RI+EOFRHhRIeGNColgokIiOKiQcEGFhD9USIQXFRLeqJAIJiokgoMKCRdUSPhDhUR4USHhjQqJYKJCIjiokHBBhYQ/VEiEFxUS3qiQCCYqJIKDCgkXVEj4Q4VEeFEh4Y0KiWCiQiI4qJBwQYWEP1RIhBcVEt6okAgmKiSCgwoJF1RI+EOFRHhRIeGNColgokIiOKiQcEGFhD9USIQXFRLeqJAIJiokgkO6hYQeeuihhx566KGH89CIRBzOtvomytnSTmdiPTUi4Y1GJIKJRiSCQ1K3NhYuXGgaNGhgatWqZd555x25d/z4cdOjRw9z8803m3bt2pn9+/fL/WnTppnbbrtN0q9YsULuwfz5881DDz1kfvrpp8idrMOrvuPGjTO33HKLueOOO8ySJUvk3oIFC8ydd95p6tatayZNmiT3LIsXLzZDhw6V80GDBpnatWubNm3amH379sm9WPlZRo4caebNm2e2bdtmHnjgAWnPnj17pnVerPxi9QfESpsRvNpp/fr15umnnzYffPBB5I4xa9euNY0bN5b6Tpw4MXI3dtqg4FXPMmXKmOnTp0euTjFgwADTpEmTyJU7J06cMDNnzpTzRYsWmYEDB8p5KnFzktwfPny4jGXG9IwZMyJP/OGsz5EjR0zLli1D6ZD9Cgns2/jx4+Wc8U2/M74//PBDuQeM72eeeea08b13714zYsQI8+yzz6akfbyERNmyZWXsVqlSxXTr1k36KlXMmTPHHD16NHKVMfw4WOZjw4YNpb3DOPYg0Xpi3+lXDsaiMw/S33777eIfli9fLvcOHTpkOnXqZGrUqCFjMT3iJWlCAqORN29es3r1arNz505z1VVXmS1btoghat26tQxOHET37t3N4cOH057j7EqXLi15kLZFixbmmmuuSatcVuJW32XLlkm5ccQ4+CJFikgH5s6d26xatcps3bpV6njgwIHIG8a0bdvWfP/99zKZqlatKm2Co+ncuXPM/CzkW7FiRXPs2DFz9913m9dff13OEWLvvvtuzPzi9UestBnFrZ0QT7feequpU6eOGTZsWOSuESH0ySefmF27dpmrr75ayhgvbVDwEhJMJpyuBRHNeGAi+2HTpk0mf/78MqFxLoyjVOPmJKdOnWqqV68ufYOwp59+/vnnyFNvqE+BAgXMwYMHxSixSAgjfoTExx9/bC699FLz0ksvSVqMMe3H+C5UqJDZsWOHjO969eqljW+bJ3ObxQFz2+t3EsFLSOTIkUOeY5dZxPXq1Ssl5SB/bBwLx2Tk7+VgP//8c3PTTTeZNWvWpMspBg2/9cTWO9MVL15cxh+Ld2yKhX7ANzA/8b/YJ97r3bu3eeKJJ8Q3MBY/+ugj3/2UNCFx8uRJmSgWCrd58+bI1SlGjx5tHn/8cRlITChLvnz5zB9//BG5MjIJgy4k9uzZkxY1wfkXLlxYzi20R8GCBc1vv/0m13QkDhxefvllceKwYcMGGQRu+c2ePVvaDb777jsREdClSxeJNMTKL15/xEqbUbwcLDBIneIAB2thpepc7UanDQpe9cyTJ4+s7lh1AitRnIYVEkScrr/+elOqVCkx1oDIxrhWqlTJ1K9f31xwwQXS11OmTJFnwDhq1KiRGIZ77rlH7iULNydJpAjBZ43QypUrReDEqwer7xtuuMGUKFFCDJizPhgzhAi/Fet9hHTRokVlPJYrVy6t//v06WNKlixpihUrJmM3K/ASEtSNfrfjlrQId/tOq1atThvf1MkpJGDu3LnSt26/kyh+hQTQN5SXa1anN954o4y7yZMnS9l4Tj8iMLHb9BsrXxYoQF+ThrT9+vWT8UD/8T4LyezZs4vYxpm99dZbMjcYB0899VS66+7lYFlx9+/fX1bX3377beRu+PCqJ/PshRdeSKunbUfGINFnFuiIeQv+l0WozROxT5QIG2Pff/PNN2UnwW+fJHVrwzJmzBjTvHnzyNWpcB6GMmfOnKKCmDQoHguDyW55QBiEhIWGbtasmXnttdcid4xMGIw/jt7Cc8KX4HSU1Ns6GoiVH20ZvTq1EYzff//dNT9w9odX2kRIREhgUCxdu3YVx2mJThsUvOpJnUaNGmWefPJJuWb7CFVv2/iVV16RCY1QvPjii+UeDpj7QH8wbiBaSPzwww9yjhHfvn27nCcDNyeJYUB0EiFs2rSpiFhw1iNbtmzyvrMeOJYJEyZIfax4cJ7Heh8jZre42LKj/xEutB3CGUPH+0T6MhsvIdG+fXsRjZSZg7REJ+w7VhhagiYkEHs4IVaj9DXbs/QPDojysOLF+XOeK1cu2V7lHDsdT0gwXhGELGjoM8QEZeDeL7/8ImnJn4gt4+CSSy5xLWMsvBws4rNDhw6yxYyzXLduXeRJuEiknswZbD5ijUg4Wxg2j6+//lrGmr2mT1ggsAVOfwLRNPrS73hMupD47LPPTLVq1SQ8Ajg6wuwMTFRTx44dZaXMnquF0J9z3yxMQgLRgHIHGp3VGx3EHum1114r2wmAgseYAnvfQ4YMkXOiBBUqVJBzcOYHdDDt4WTjxo2yAvrxxx/l2i2/6P5wS5soiQiJK664InJ2asuHclrCLCTof6JJhFMJWTOOrZDo27evTFZWfOecc47cwwFbJ+MmJOzYIS/6P1m4OUnmJHOX8fzll1+KkWJrI7oevO+sB8IQZxJPSMR6n5UriwywDhlh8fDDD6eVD7HBtl9m49ZGGOXrrrtOHCnzloM5f+WVV6a98+CDD542voMmJBBzlJ95xyKGMuCI+IYJO33XXXeJDbKRUpsX5Y0nJBBWRB15j4PIHPk6hQQRCzsOzj33XNcyxsLLwRIhtHYPcW8jJWEjo/VEzF1++eVpefD9HX1qr9lGJ0JEZIPFAu8S6SYvv+2VVCHBfgvGc/fu3ZE7pyYNhgNmzZolH4QQxsc4MlgJgRIicxIWIYExQPXZBsTo0mG2U/l4CWXOysoZoSHMxyQFVOT9998v59H5AardGZ2gbcuXL3/atkW8/GL1R7y0GSERIUFoG2fLQOXc+XFtmIUEsELFubzxxhunCYmLLrpIvptAHJ5//vlyL1pI8I0EBEFI4BSYv0AatuZwGERTmLvUg9Usz+IJCcQHz51CItb7iATGIzgjEghm0iJqcGJBi0iwZcF45WC7loPwMP3EnjXvcc7CwhLUrQ0cDosfnAlRCZw85SEiUbNmTTknXE5EArDTCAnEHhEonmO/6HvGPaKBvuM+Hw8D99hSBQQMW9qMgwsvvNC1jLHwcrCswik7v08EnA8MOQ8bXvWkbraejCHqid9B1HIPe8Fi3eaB/+WaRT7+lznKM+YtEVXeIZpOJNtveyVVSPABB/ujVoUyoPjIiEGIU8UBLl26VNKyd8XeGOmdf1EAYRAShI94Xrly5bT6UuZXX31VDAcG0HYkncJ3DhYEB4KK9sCJsmcVLz+unR/K8DEqk9mmofNj5Qex+iNe2ozgNS4gWhx88cUXEu607eQk7EKCfuMc58e5FRJE4xAFRIgw3kxipwNmMpMWYxwEIYHBwTBh/BlHCCScTXQ9+BgzlpCgPvQv9WE1a4XEo48++h/v006EaNkCRYTZ/sfpMk5wcEH9RsJC+axAYHxTD6cdsARVSABbcXzrgs2hL+h3tuj4l7K9/fbb0o/YdFbCCAnKjmMiusn3FGPHjpW0RFd5j8XM4MGD5R4fd9OX5M84IC87DvAV6cHLwRKxxcZxEGlh7IYRP/XELth6YuNx6kTCiPSxXUV0j/Zn3pEXW5ZsjdM/9CnPiFDTVxz4C+cfCniRkm8kzhSSVV8+MqWj0gvbQfbPyYLM2TIuzsR6+nWSqYZwtxVL7PfijIJCUNooUbyERKLYrY2swsvBnikkq55E+NhiSkWbqZBw4Wyrb6KokAgvQXGSROz4CwGiH3xtb7cHg4AKidiokMgcklVPIqRsI6UCFRIuqJDwhwqJ8BJ2J5kZqJAIJiokgoMKCRdUSPhDhUR4USHhjQqJYKJCIjiokHBBhYQ/VEiEFxUS3qiQCCYqJIKDCgkXVEj4Q4VEeFEh4Y0KiWCiQiI4qJBwQYWEP1RIhBcVEt6okAgmKiSCgwoJF1RI+EOFRHhRIeGNColgokIiOKiQcEGFhD9USIQXFRLeqJAIJiokgoMKCRdUSPhDhUR4USHhjQqJYKJCIjiokHBBhYQ/VEiEFxUS3qiQCCYqJIKDCgkXVEj4Q4VEeFEh4Y0KiWCiQiI4qJBwQYWEP1RIhBcVEt6okAgmKiSCgwoJF1RI+EOFRHhRIeGNColgokIiOKiQcEGFhD9USIQXFRLeqJAIJiokgoMKCRdUSPhDhUR4USHhjQqJYKJCIjikW0jooYceeuihhx56OA+NSMThbKtvopwt7XQm1lMjEt5oRCKYaEQiOCR1a2PhwoWmQYMGplatWuadd96Re8ePHzc9evQwN998s2nXrp3Zv3+/3J82bZq57bbbJP2KFSvkHsyfP9889NBD5qefforcyTq86jtu3Dhzyy23mDvuuMMsWbJE7i1YsMDceeedpm7dumbSpElyz7J48WIzdOhQOR80aJCpXbu2adOmjdm3b5/ci5WfZeTIkWbevHlm27Zt5oEHHpD27NmzZ1rnxcovVn9ArLQZwaud1q9fb55++mnzwQcfRO4Ys3btWtO4cWOp78SJEyN3Y6cNCl71LFOmjJk+fXrk6hQDBgwwTZo0iVy5c+LECTNz5kw5X7RokRk4cKCcpxI3J8n94cOHy1hmTM+YMSPyxB/O+hw5csS0bNkylA7ZS0gwVhnH999/v9m6davcw+599NFHpnnz5mnvco85a22hnXtvvfVW2rzHRiQbLyFRtmxZGbsVK1YU27Jp06bIk/Tz66+/mlatWpkaNWqY559/PqUO0MvBrl692tx7771i62jjMI498CskxowZYx5//PHT6slYo2/t8be//U2ejxgxIq3fOQ4cOBB5IzGSJiQwGnnz5pXO27lzp7nqqqvMli1bxBC1bt1aDAkOonv37ubw4cNpz3F2pUuXljxI26JFC3PNNdeY5cuXy72sxK2+y5Ytk3JjDHDwRYoUkQ7KnTu3WbVqlRgU6ujsoLZt25rvv//ezJkzx1StWlXaBEfTuXPnmPlZyJdJfuzYMXP33Xeb119/Xc4RYu+++27M/OL1R6y0GcWtnTCMt956q6lTp44ZNmxY5O6pAf7JJ5+YXbt2mauvvlrKGC9tUPASEkwmnK4Fx8F4YKL6AQOeP39+c+jQIbN3714ZR6nGzUlOnTrVVK9eXfoGYU8//fzzz5Gn3lCfAgUKmIMHD4ohZJEQRtzaiDl17bXXynx/7bXXRLiTlrnerVs3kz179rR3Md7YQuzfM888I7aQeX/99ddLfzPvixYtGve3EsVLSOTIkUOeM15xRszNRMuA46Yd6HPE0WeffRZ5kny8HCxjd8qUKWbHjh2mYMGC0ldhxI+QsLaD8RcvLQt6Fqv0bfv27WV+429Y3Gd0zCVNSJw8efI0NY3x3Lx5c+TqFKNHjxbFRASiXr16kbvG5MuXz/zxxx+RKyNqNuhCYs+ePWlREzqjcOHCcm6hPRi8v/32m1zjHHDg8PLLL4sThw0bNpibbrrJNb/Zs2dLu8F3330nIgK6dOkikYZY+cXrj1hpM4qXg4XevXufJg5wsBZWqs7VbnTaoOBVzzx58ojKJ6oCH374oYgiKySYxDiNUqVKmV69esk9HAsCslKlSqZ+/frmggsukL7GAPIMGEeNGjUyxYsXN/fcc4/cSxZuTpJIEU6FsQsrV64UhxevHjiOG264wZQoUUIEorM+GCuECL8V630cKk6U8ViuXLm0/u/Tp48pWbKkKVasmIzdrMCtjT7//HNZxfOc48orrzwt7aWXXhrzXbt63L1792nz3i5IkolfIQHYCBYgXHfq1MnceOONMu4mT54s5aLv6EecNHabfosHERrGcbLrY/FysIxHfp+xyOIUQRFG/AgJollErbEPsdIi7JiX1s/efvvtMvfwBdZeZYSkbm1YmCSE9CwUFEOZM2dOUU5z586VlbUFQ2u3PCAMQsLCJGnWrJmocAuRF4w/jt7Cc1Yk4HSU1Nu5Yo2VH20ZvTq1EYzff//dNT9w9odX2kRIREiwUrN07dpVJrwlrEKCOo0aNco8+eSTck1IlfC2beNXXnlFJjQO4+KLL5Z7OGDuA/3BuIFoIfHDDz/IOUZ8+/btcp4M3JwkhgFDgxFu2rSpiFhw1iNbtmzyvrMebJlNmDBB6mPFg/M81vsIJbvFRfif/ke40HYI56NHj8r7dusgM3Fro19++UWcP6vdTz/91Jx//vmnpY0WEtjCypUriy3cuHFj5O6pec8cZd7H+61E8RISiL1nn31W7BbCoW/fvhJJJUJMWRBLRNo4z5Url2yvco6dxg6xDYdNt/X5+OOPRVAjCFnQpAovB8scuvzyy0XwYFOT3a6ZhVc933vvPfPoo49KX8QTEi+++KLp169fWhs89dRTMsfYPqV9iJJlhKQLCUJZ1apVk9A54OgIs2M4XnjhBdOxY0dZKbPnailUqJAYCkuYhASTD+UOdBKrNzqSbwAIedpwGgoeYwp03pAhQ+ScFUCFChXkHJz5AStA2sMJE5aJ+uOPP8q1W37R/eGWNlESERJXXHFF5OzUlo8zBBpmIUH/E01as2aNbEcxjq2QwEDzvQp7yOecc47cwwFbEeUmJOzYIS+nA8oobk6SOcncZTx/+eWXsk3B1kZ0PXjfWQ+EISvXeEIi1vtEMuzePH3PgbB4+OGH08qH2CD8n9m4tRG88cYbUh/qTd870zqFhNMW9u/fX2yhfcZWB/Pe7XcSxUtIIObY8kQMrFu3Tu4h3viGCTt91113iQ2ykVKbF04L50VfMWd5n/FPHVj985zvR1JRJ/BysAg8hCe/T2Ttm2++iTwJF271JOLNvGSbgi1vbD0C3AlbViwGiMzEgqgp3+RlpJ+SKiT43gHjSbjOQmgSwwGzZs0yDRs2lDA+xpHBSuVQRE7CIiSYQKwibANiJFDA1mlXqVJFVpJ0rDNCQ5iQSQp8kEkIEKLzA1YFzugEbVu+fPnTti3i5RerP+KlzQiJCAlC2zhbBi/nzo9rwywkgP3H6667ThyMU0hcdNFFMqkRh6xcIVpIsM8JQRAShN6Zv0AatuZwOERTmLvUg9Usz+IJCYwcz51CItb7iAT7cbIzIoFgthEJnFjQIhJOmKt8c+RM6xQSzz33nNhCrrGF1JlztmyY96lavXsJCefWhoWPxhFHlI+IRM2aNeWcb62ISICNSDjhHSv2WBQRfbL1TzZeQoKoj91aZpuNeqSqLKnErZ4sWJmj2ExEN4tXooHOevKhKaLV5oF/4dMCtjkYc4iM9Hz7FIukCgn21tiHYYBxYExQpgxCnCoOcOnSpZIWRc4eKemdf1EAYRASKHeeE6a09aXMr776qhh7DKBdYbDFwXcOFgQHgor2wInyzUi8/Li2e9TAx6hMZpsGox0rP4jVH/HSZgSvcQHR4uCLL76QvW/bTk7CLiToN85xfk4hwWRGFLBqwHgjop0OmIlOWpxKEIQEgp9VJSFqxhECCcMTXQ8+xowlJKgP/Ut9WM1aIUEYNvp92onvINgCRYTZ/rffSGAgg/iNBPB9D3OJb32INjhxCglsIY7W2kJWgcx78nfO+2jnnFESERKEuukL+p0tOv6lHm+//bb0Izadb4Kiy8oHtdSN+rDSZQylCi8hwRhk3NA3jEFsXxjxqqeFOWS3Nl566SWZQ5xTfxu9tvA9BVvj9Csf/bqNbz+k5BuJM4Vk1ZePTBPpKIzS+PHjI1fB5WwZF2diPb2cZGbBtwZWLHXo0MGMHTtWzoNAUNooUbyERKLYrY2swq+DDTuJ1PO+++6TrZzMGrcqJFw42+qbKCokwktQnCQROz70I/rBF+V2ezAIqJCIjQqJzCGRemb2FqAKCRdUSPhDhUR4CbuTzAxUSAQTFRLBQYWECyok/KFCIryokPBGhUQwUSERHFRIuKBCwh8qJMKLCglvVEgEExUSwUGFhAsqJPyhQiK8qJDwRoVEMFEhERxUSLigQsIfKiTCiwoJb1RIBBMVEsFBhYQLKiT8oUIivKiQ8EaFRDBRIREcVEi4oELCHyokwosKCW9USAQTFRLBQYWECyok/KFCIryokPBGhUQwUSERHFRIuKBCwh8qJMKLCglvVEgEExUSwUGFhAsqJPyhQiK8qJDwRoVEMFEhERxUSLigQsIfKiTCiwoJb1RIBBMVEsFBhYQLKiT8oUIivKiQ8EaFRDBRIREcVEi4oELCHyokwosKCW9USAQTFRLBQYWECyok/KFCIryokPBGhUQwUSERHNItJPTQQw899NBDDz2ch0Yk4nC21TdRzpZ2OhPrmazV9okTJ8zMmTMjV2cWGpEIJhqRCA5J3dpYuHChadCggalVq5Z555135N7x48dNjx49zM0332zatWtn9u/fL/enTZtmbrvtNkm/YsUKubdt2zbzwAMPSNqePXvGLFhm4lXfcePGmVtuucXccccdZsmSJXLv22+/NWXKlEk75syZI/dh8eLFZujQoXI+aNAgU7t2bdOmTRuzb98+uRcrP8vIkSPNvHnz4rZRrPxi9QfESpsRvNpp/fr15umnnzYffPBB5I4xa9euNY0bN5b6Tpw4Ue49/vjjp7UddQwSXvWsVq1a5OwU1Oe7776LXAUTNyfZqlUrs2jRosiVMatXrzYNGzaMmZ55ffXVVyfd4TIPqlatmmY3sgIvITFixIjTxu3y5ctN2bJlT7v33nvviTPo06ePjOtu3bqZY8eORXI4BfZx/Pjxkavk4SUkbFkrVqwotmXTpk2RJ4nBOMG2PPXUUykVYH4d7JgxY2QuprIsqcSrnsxR53ibPXt2Wl0PHTpkOnXqZGrUqGGeffbZtHymT59ubr/9dvEPjNeMkjQhwYokb968Moh27txprrrqKrNlyxYzfPhw07p1a3PkyBFxJt27dzeHDx9Oe46zK126tORx9913m9dff10mGCLj3XfflftZhVt9ly1bJuXGEePgixQpIvcp85NPPimGj4N2sbRt29Z8//33Ii4wjrTJgAEDTOfOnePmBwwKJjntEquNYuUXrz9ipc0obu2EeLr11ltNnTp1zLBhwyJ3jRjTTz75xOzatUscEGV08vnnn8u4CRJeQiJ79uyRs1PQV3Pnzo1cBRM3J4nodY4PHEPv3r0jV6eTSiGRlSICvIQEAoCxbOd8dNrKlSubDRs2iJC+5557JA2O9qWXXkpL+/HHH5tLL730tHvJwktI5MiRQ56z6MPpMjcTLcP27dtN0aJFzZdffin5pRI/QgJRlD9/fpmLyW7XzMKrnohPfA6+g7Hl9DnM1yeeeELsPW3w0UcfibjAN9A2+F/Eh1c7epE0IXHy5ElxGhYKt3nz5sjVKUaPHi3KkAhEvXr1IneNyZcvn/njjz9k9WZVepcuXU5bRWcFbvXds2eP+emnn+ScDixcuLCc45xbtGhhnnvuOfPNN9/IPaDzcODw8ssvSzrAwNx0001x8wMUJu0GsdooVn7x+iNW2ozi5WCBAe0UErlz546cGdOyZUszY8aMyNUpiKL88MMPkatgkKiQYGw3atTIVKpUSfqBCA3Rp2LFismEnj9/vhi76tWry1zAeVepUkUMMuIb6Pfy5cubChUqiDDDSJMH14hM3v/6668lbXpwc5I7duwwefLkkbFEGspD2ffu3SuRJMp4/fXXm3Xr1okBs0KCfxG511xzjbQBBibWO842QORyzbNSpUqZXr16SRlYaf3yyy8SiWP+3HjjjeKYEZ6///67REjKlStnrr322pSJNi8hQV3pJ+YVc8oJiwL6nveJzI4dO1bOiVyyGuSctqOedo64/VYi+BUSgI2gP7hmJUt7Fy9e3EyePFnKRR/Rv3assgByQrTzwQcfNH379jXvv/9+0uvixI+QqF+/vkRzEXCpLEsq8arnwIED03wO481ZT8YeY417b775poxBIhCMWZtngQIFzNGjR+U8UVLyVxuo2ubNm0euToW2MaI5c+YUFcSEx8BYMK5MJotdnWMoshI/9aWDmjVrZl577TW5njBhgkRdMBgYYRva5jkhUHA6VepN/S3R+QFtuWrVqsjVKZxt5JYfOPvDK20iJCIknE63a9euZsqUKZErY5YuXSpOJ2h41ZPJRAjRHpdffrmM9VdeecU89thjkobVwyOPPCIG2TqYjRs3inBkIv78888mW7Zs5uDBg7KKYM4AK16EFaKEFeOCBQskDxwpvPXWW6ZDhw5ynh68nCThz6+++krCp2zdkJZyUB4EBg7/+eefl7HkFBLUA0PFFtoXX3wR8x3bBtag0U7UGyFNG5CXFRJvv/22adKkibz/xhtviPgi2klbkm7lypUiJtzqkihebUSkhrGNQce50m8WtintgoI6IB5oK4QHUTrybd++vfnwww8lD45k18FLSFxwwQUS9qZMCAdEwIEDB6R9KQvRwbp168p5rly5RNRxzhjHDjE2GOeMY+qCyPj000/lX+qc7PpYvBws20kdO3aUMp7JQgLBZn0OIpAonq0rCzIr9qZOnSoLUqLStIfNEyGO0M8ISRcSn332mRgcO5lwdIRaMBAvvPCCdCwr5TvvvFOeQ6FChdIUEYMR4/Hjjz/KdVbip75MPpR7LJiQgwcPlnMmFQYEMDhDhgyRc1YArCot0fnRwUxYJ9Ft5JZfdH+4pU2URITEFVdcETk7teVDOS333Xef7OEFDa96xotIMOZZ1VmBQagRJ4qAAvrTCjrGSMGCBeUcbJ7WMCMyiT6QrzMPhFgiW0FeThIHxwqT6BdbasDCoGbNmvKNC+OHvo0WEogB4DseIpG8g1FzvuMsPzBfSMO3Geecc47kZYUE9oF2w9GxLbB7926ZJxhRC6IrFc7Cq42cIIDt902If6JF9l3sIHWgjnyLwLinH6+77jox7tSHg+hMMvESEog2fp+yECkCop70FXb6rrvuknFrI6U2L5wRTop5TX/yPuPTzmX+pa9S0Sfg5mB/++03WWnjPBm32EDEZhjxE3mx9OvXT3yObXMiMixmuSZ6zRYIwo8+tXmyjc7nBhkhqUKC/RYmDpPcwsdFGAiYNWuWrKAI42MsGazskaPigfcI3zpD8lmJV32ZQKz0nQ2I07ADFsOOseTaGaEhTMgkhUmTJpn7779fzmPlx6rAGZ2I1Ubx8ovVH/HSZoREhAQh7DVr1sgA59xu6xAaJrSdKuOTERIVEtT70UcflXus9Kh3eoUEq1e2LhgbhPYzS0gQAcF5cFghTDSBeQ2shGIJCUQq5zhWIhqx3okWEhdffLHYBMQzq2Tet0KCiAsRDSDyMmrUKJkbzDfS8S1QVkQk6A+2mig30RK2fygv4ESdHxhbEBRNmzaV7yLY0qMtONju5SAUnUy8hIRza8NCxAvBQ72JSCAcOedbKyISYCMSTvjGg/A5aRn3OK5U9Am4OVg+5ma80a4PP/ywjA2ixakqSyrxEhLYFrsNjDi122fA/GKucM1igOg0/oDFO4t8/C+Cyy1/PyRVSBBWKVGiRNrKC0PBPiuDkL1RHCBha+jfv784DNLbbyHY52Gg2vedRiYrcKsvyp3nGHVbXvae2KPC+N1www1iYFhJ0YF852DBkCCoaA+cKN+MxMuPa76vsMRqo1j5Qaz+iJc2I3iNC2BCO4UE4e6SJUtKWzkjMDgGp3AKEl71jCckUPusAAghIuz4EC29QoIQMf1pvwcgUpAZQgIIV7PStGC0MESMH+pDn0ULCYQP85tVKwYm1jvRQgKDSN1ZPeLc+A7CCgnmB2OWb3qIaBDhcH4jwViirVOBVxuxB882I3PNOtGtW7fKNyLMNydEZYlAIKyi8+T7JeaIV3+kl0SEBGOW7WjqxPYU/1IuxiH9i01n6zZaSBD5xO7ZsW5FRyrwu1LHjp7JWxtsndHe1ufQdwg6xhKfEtAPHPgAFjLA9zx2zCZj+ykl30icKSSrvoR2E+kotoNS8edgyeZsGRdnYj39CIn0gqOxWxtnAqloo8zES0gkit3ayCrSE/IPM4nUk+1hBEZmjVsVEi6cbfVNFBUS4UWFhDcqJGKjQiJzSKSeRMQyExUSLqiQ8IcKifASdieZGaiQCCYqJIKDCgkXVEj4Q4VEeFEh4Y0KiWCiQiI4qJBwQYWEP1RIhBcVEt6okAgmKiSCgwoJF1RI+EOFRHhRIeGNColgokIiOKiQcEGFhD9USIQXFRLeqJAIJiokgoMKCRdUSPhDhUR4USHhjQqJYKJCIjiokHBBhYQ/VEiEFxUS3qiQCCYqJIKDCgkXVEj4Q4VEeFEh4Y0KiWCiQiI4qJBwQYWEP1RIhBcVEt6okAgmKiSCgwoJF1RI+EOFRHhRIeGNColgokIiOKiQcEGFhD9USIQXFRLeqJAIJiokgoMKCRdUSPhDhUR4USHhjQqJYKJCIjiokHBBhYQ/VEiEFxUS3qiQCCYqJIKDCgkXVEj4Q4VEeFEh4Y0KiWCiQiI4pFtI6KGHHnrooYceejgPjUjE4Wyrb6KcLe10JtZTIxLeaEQimGhEIjjo1oYLKiT8oUIiY8ycOTNylvmokPBGhUQwUSERHJIqJBYuXGgaNGhgatWqZd555x25d/z4cdOjRw9z8803m3bt2pn9+/fL/WnTppnbbrtN0q9YsULu/frrr6Zly5amRo0a5vnnn8/yyetV33HjxplbbrnF3HHHHWbJkiXmp59+MmXKlDntmDBhQiS1MYsXLzZDhw6V80GDBpnatWubNm3amH379sm96PycjBw50sybN89s27bNPPDAA9KePXv2TOu8WPnF6g+IlTYjeLXT+vXrzdNPP20++OCDyJ1T4+Kjjz4yzZs3j9w5RbLLlky86mn7vGLFitJHmzdvjjxxp2DBgpGzzMfLSS5fvtzcd999Mif79Okj/ZbVdOzY0ezYsSNyZcxLL71kHnnkkZQZW79CAvs2fvx4OV+7dq1p0qSJzOcPP/xQ7gFz4ZlnnjltLuzdu9eMGDHCPPvssymxeV5ComzZsjJuq1SpYrp162aOHDkSeZJ85syZY44ePRq5yhheDhb7d/fdd4v9e/vtt0MrBv0IienTp5uGDRvKuLL1xIZam8RYdOZB+ttvv138A3McDh06ZDp16iRznbGYnvmUNCFx4sQJkzdvXrN69Wqzc+dOc9VVV5ktW7aY4cOHm9atW8vgxJl0797dHD58OO05nV26dGnJo1GjRua1116TCuFMPv/8c7mfVbjVd9myZVJunB0OvkiRIpEn/0+lSpXMzz//HLkypm3btub777+XyVS1alVpkwEDBpjOnTu75sfAwDkdO3ZMJsbrr78u5wixd999N2Z+8fojVtqM4tZOiKdbb73V1KlTxwwbNixy99Qgx2hlz549cueUkUl22ZKJl5CwdcHZjh492lSvXl2u42EnfFCFxK5du0y+fPnM/PnzZQHAPO7bt2/kadaxaNGi0wQNYyyVTsKPkPj444/NpZdeKqKGtBjjqVOnShsWKlRIhA/lrFevXtpcsHla4cncTkU9vIREjhw55Dl2+aGHHjK9evVKSTnIHxvHwjEZ+bs5WOxf/vz5zapVq8T+YQs3bdoUeRouvIQEfvKmm24SW+9MV7x4cRl/zF18qoV+sO2B/0Vo8F7v3r3NE088IfaXschCz28/JU1InDx5UiaKhcJFr8gwro8//rgMJCaUBWP1xx9/RK5O0bRpU5mIWYlbfffs2SMRCMD5Fy5cWM4tiAEUooWOxEnCyy+/LI4SNmzYIIPALb/Zs2dLu8F3330nIgK6dOkikYZY+cXrj1hpM4qXgwUGqVNIWJxCIhVlSyZ+hQTQ1nny5JFznG+5cuVMyZIlzZQpU+Qeq2rEIqulXLlyyT0cNYYWAfr777+be+65R9679tprzddffy1pko2bk0Swtm/fPnJlzMaNG81bb70l50QnqE+xYsWk34DyswK/4YYbTIkSJcSIYbRY+VAP60SY6/fee6/Uk3G5bt06icbxDqtijNysWbMkT1bzGMRSpUqZrl27SllZQf/yyy+yuq9QoYL8XuXKlSWiSRmZO4i4AgUKmCFDhkg+GcFLSGCoKZMd46RFuNt3WrVqZWbMmCHnQNs5hQTMnTtX+tvtdxLFr5AA+oHycs3q9MYbb5T2nzx5spSN51dffbW0L3abBRCLAhYBgJ0iDWn79esnfcM44X0WksyRunXryrhgLNH/9O1TTz2V7rq7Odho+8f4O1OFRP369c0LL7wgUYRvv/02rR0Zg0R4WcwfPHhQ7gFzkEWozZN5QpSIhbx9/80335SdBL99kpJvJMaMGXNayJoJj9HImTOndCaTBsVjYTDZLQ9UENd0fKyCZSZ+6ktDN2vWTCIpTuhcVnIWnhO+BKdTpd7U1xIrP9oSZe3ERjBwOG75gbM/vNImQrKERCrKlky86nneeedJHTCYGGAExA8//CBOhrG8detWcZZMZO6xaqKeuXPnlvdxxK+88oqcM/kJ18PKlSvFmKcCNydJ+alPNJTn+uuvF0GLAcKxUDdn+XEubOuxQn/yySflHoIYoUiaxx57TO6xFUA9cT6syikL9gF7QZshKnbv3i33yX/79u1pQgIxYrcImFsdOnQQIYGDY1WFraHd4tXPL15CArGF4GHscpCW6IR9B+dqBSQETUhccMEF4oRYjV5zzTVmwYIF4ngYg5SHFS/On3NEL9urnBN1iSckGPfYcBw6YwMxQRm4R98B+R84cEAWTpdccolrGWPhJ+QP//jHP0yLFi1S0raZgVc9EfOM/UmTJokoQJgzN7H5iDUi4Wxh2DxYlDDW7DV9wvYaixr6E1jE05d+2yzpQuKzzz4z1apVk4kMODoMJgMT1cRKDKV45513ynMg9IdBYtVOwQkDIjSce4tZgZ/64jRQ7k5w+qyUnKDgcRowcODAtJUSK1dn2uj86GAmrBOMJcb0xx9/lGu3/KL7wy1toiRLSKSibMnEq54XXXSROAQOJjMwhjG+9CEHYW2cCpPbYrc2cJTW4Tz66KPm/fffl3O4/PLLI2fJxc1JYujZfrLYbbeJEyeahx9+OHL31JYk953lJ3qAQ2G+O78HAOqGg7dtggMjLe8ARhBxRUga4RVdPiskrrvuOhEWgONiO5T7POcd5hsix68xjIdbG2GUKQeOlHnLwRbilVdemfbOgw8+KPPQEjQhkS1bNik/c5RFDGWgDxo3bix2+q677pJ+spFSmxfljSckGPf0oXPck69TSBCxwHkRATn33HNdyxgLP0ICEYTtdYb2w4ZXPYl8WvuOaKf9neMIMYf9sHnw/R19aq+JjBIhYvFLxJt3iXSTl9/xmPSPLdnvYwVhYdLYfVXClYT7CeNjPBmsdh8Watasab755hs5Z5/Orm6yCq/6YgxQfdENiEF1Gk9WcM4IDWE+JimgIu+//345j5UfxtwZnaBty5cvf1rYLl5+sfojXtqMkCwhkYqyJROvejrrYuFDJhwbe/pMSvb3bUSCfsbZObc2rCOm33HCwN5nVkQk+F0chw2LEiZFQDCeiRbZiARpbEQiWkjwcTEhUiC8b8cBYoLfZUW6Zs0aSYvD5R6iBPFL+2Akf/vtNzknAhEdkbCLjVGjRqVFJDJTSNg6cbBdy0F4mPah/XiPcz6+tAR1awOHwzYazoSoBE6e8uCMsc2cEy4nIgEIBIQEY4LoE8+xX/Ql4x7RwBjhPuMeuMe2JSBg2OZisXThhRe6ljEWXg4W+8f2KD4mzHjVk0U3fUQ7M4b4kBJhjajlHnOCxbrNA//LNYt82oYoBs+Ys8wj3mHbnEg2535IqpAgDMkKwqpQBhTRBQYhe584wKVLl0ra/v37y94Y6e1fFLAVYPc7UbAYkKzErb6sOHlOWW19mTwY1KJFi8qktNAphHUtRGgQVLQHIWIcS7z8uHaqaUJ0TGabhs6PlR/E6o94aTOC17gAP0IiFWVLJl71jCUkAFGMgUbUvfjii3KPSc44wVjbbymcjtj5jQRh4az4RgIICyNiKAfhbWuUcYaUi3o5v5GIFhKMXfZjmdf0K98Bsfoh1EqetMmXX34paXH6RBX4134jgSDnN9jG468dKKsVEvYbCfLFvthvJDJTSDihHaxA+OKLLyRSQVmsQbcEVUgAW8t850K/sb2E/aBPbGSIv36gTbHpjFuEBGXHMdEXjJWxY8dKWqKrvEcfDx48WO7xATX9Sf6ISfJCNFIG51/i+MHLwfKxpdP+2XKFDa96EplGrGIziShhR3HqCHPmHdtVRBGpOwt48mKLkTlF+9i/aCEKTF9x0F6IfL+k5BuJM4Vk1ZePTBMZwKwE7Z+TBZmzZVycifX06yRTDULCbm0EjaC0UaJ4CYlEsVsbWYWXgz1TSFY9iSSyQE9Fm6mQcOFsq2+iqJAILyokvFEhERsVEplDsurJNiTbSKlAhYQLKiT8oUIivITdSWYGKiSCiQqJ4KBCwgUVEv5QIRFeVEh4o0IimKiQCA4qJFxQIeEPFRLhRYWENyokgokKieCgQsIFFRL+UCERXlRIeKNCIpiokAgOKiRcUCHhDxUS4UWFhDcqJIKJCongoELCBRUS/lAhEV5USHijQiKYqJAIDiokXFAh4Q8VEuFFhYQ3KiSCiQqJ4KBCwgUVEv5QIRFeVEh4o0IimKiQCA4qJFxQIeEPFRLhRYWENyokgokKieCgQsIFFRL+UCERXlRIeKNCIpiokAgOKiRcUCHhDxUS4UWFhDcqJIKJCongoELCBRUS/lAhEV5USHijQiKYqJAIDiokXFAh4Q8VEuFFhYQ3KiSCiQqJ4JBuIaGHHnrooYceeujhPDQiEYezrb6Jcra005lYT41IeKMRiWCiEYngoFsbLqiQ8IcKiYwxc+bMyFnmo0LCGxUS/snMsaxCIjgkVUgsXLjQNGjQwNSqVcu88847cu/48eOmR48e5uabbzbt2rUz+/fvl/vTpk0zt912m6RfsWKF3Pv1119Ny5YtTY0aNczzzz+f5ZPXq77jxo0zt9xyi7njjjvMkiVLzE8//WTKlClz2jFhwoRIamMWL15shg4dKueDBg0ytWvXNm3atDH79u2Te9H5ORk5cqSZN2+e2bZtm3nggQekPXv27JnWebHyi9UfECttRvBqp/Xr15unn37afPDBB5E7p8bFRx99ZJo3bx65c4pkly2ZeNXT9nnFihWljzZv3hx54k7BggUjZ5mPl5Ncvny5ue+++2RO9unTR/otq+nYsaPZsWNH5MqYl156yTzyyCMpM7ZebTR27FiZY/fcc49ZuXKl3HOO7+h3Dx48KPN37dq1cr13714zYsQI8+yzz6bE5nkJibJly55ms5YuXRp5kn4KFSqUaU7Py8Fi/+6++27pm7fffjvL/UmieNWTsfbxxx+bFi1anJZu8ODB4k+wpYwxJ9OnTze33367+AfmOBw6dMh06tRJ5jpjMT39mDQhceLECZM3b16zevVqs3PnTnPVVVeZLVu2mOHDh5vWrVubI0eOiDPp3r27OXz4cNpzOrt06dKSR6NGjcxrr70mFcKZfP7553I/q3Cr77Jly6TcODscfJEiRSJP/p9KlSqZn3/+OXJlTNu2bc33339v5syZY6pWrSptMmDAANO5c2fX/JgAOKdjx47JxHj99dflHCH27rvvxswvXn/ESptR3NoJ8XTrrbeaOnXqmGHDhkXuGhnc3bp1M9mzZ4/cMSkpWzLxEhK2Lkzs0aNHm+rVq8t1PKxhC6qQ2LVrl8mXL5+ZP3++LACYx3379o08zToWLVp0mqBhjKXSSbi1EcKhVKlSZs+ePWbGjBnmpptukrTMdTu+o9997LHH5D5zHqzwZG6noh5eQiJHjhzpchqxsOUOipDA/uXPn9+sWrVK7B+2cNOmTZGn4cJLSDz44IMy1i699NK0dHPnzjXVqlUTXzpw4ECxpfYZ/te2B/4X8ciz3r17myeeeELsL2MRIex3PCZNSJw8eVImtIXCRa/IMK6PP/64RCDq1asXuWvEWP3xxx+Rq1M0bdrUTJ06NXKVNbjVF8NBBAJw/oULF5ZzC2KgYcOGkatTag8nCS+//LI4StiwYYMYH7f8Zs+eLe0G3333nYgI6NKli0QaYuUXrz9ipc0oXg4WGKROIWFxColUlC2Z+BUSQFvnyZNHznG+5cqVMyVLljRTpkyRe6yqEYuslnLlyiX3cNSISQTo77//Litc3rv22mvN119/LWmSjZuTRLC2b98+cmXMxo0bzVtvvSXnRCeoT7FixaTfgPKzArrhhhtMiRIlRIhgtFj5UA/qxtxnrt97771ST8blunXrJBrHO1WqVBEjN2vWLMnzww8/NMWLFxdn3bVrVykrK+hffvlFIl0VKlSQ36tcubJENCkjcwcRV6BAATNkyBDJJyO4tZETIgzU05kW4+68xnDXr19fDLUVEoDhp7/9/E56SURIIPQR9oDtoX84ED0cOGnKDI8++uhpY5m8GCf0Lf321FNPpaRebg422v7RL2eqkLA4+/GVV14RW0q7Y0uZH/YZc5BFqL1mnhw9elQW8t9++6288+abb8pOgt9+S8k3EmPGjDktZM2Ex2jkzJlTOpMByESyMODslgcqiGs6PlbBMhM/9aWhmzVrJpEUJxgLVnIWnhO+BKdTpd7U1xIrP9oSZe3ERjBwOG75gbM/vNImQrKERCrKlky86nneeedJHYi83XjjjSIgfvjhB3F8jOWtW7eKs2Qic49VE/XMnTu3vI8jxgAAkTzC9cCqF2eaCtycJOWnPtFQnuuvv14ELQbo6quvlro5y48jYluPbYcnn3xS7iGIMW6kYVUO48ePl3ripFiVUxbsA/aCNkNU7N69W+6T//bt29OEBGLEbpcxtzp06CBCgoUJqypsDe0Wr35+8SMkmO+XXXaZhJidOIUEURSED2VHNARFSJxzzjkSzuZ46KGHpAzxhATOhudsFdDehMWx1dSNsUzkk99i/B44cEAWRZdcconr7yeKXwf7j3/8Q8L+qWjbzCARIYHQx5ZSZ/qFPrLPWJQw1uw1z9j6QAjaMckinn7322ZJFxKfffaZhFSYyICjw2CyL/jCCy/ISgyleOedd8pzIByGQWLVTsHZ/0RosBrJSvzUF6fBvpITnD4GwwkrJDoUCDXZlRIrV2fa6PzoYCa4E4wlxvTHH3+Ua7f8ovvDLW2iJEtIpKJsycSrnhdddJE4BA5W2cAYZpVmDTVbPEQlCH1b7NYGjtJGLFjlvf/++3IOl19+eeQsubg5SZwBIVOL3XabOHGiefjhhyN3T21Jct9ZfqIHOB7mu/PbGKBuOHjbJoRTScs7gEBBXBGSRnhFl88Kieuuu06EBSDY2A7lPs+tAUXk+DWG8XBrI2wbNg5HShQFce9M6xQSCDMWCTho5iSLBSI2kJVCIj0RCRsVwtGQZvLkyRJat+W2Wxv9+vUTx9SqVStz7rnnuv5+ovhxsGyPY3vxLWElESHBt2bYUvoFW0p01z7j+7u77ror7ZpoEuMQMUzEm3eIdLMA8Dsek/6xJWEvVhAWlJHdV2WiEe4njI/xxGDYfVioWbOm+eabb+S8V69eaaubrMKrvjhGVvrRDYhBdRpPVnDOCA2Tr3HjxnI+adIkc//998t5rPww5s7oBG1bvnz508J28fKL1R/x0maEZAmJVJQtmXjV01kXCys2HBuOhknJ/r6NSNDPODvn1oZ1xPQ7Thj4ziUrIhL8LtsELAIA44SAYDwTLbIRCdLYiES0kODjYkKkwDcEdhwgJvhdVq1r1qyRtNYhIUpwtLQP20O//fabnBOBiI5I2MXGqFGj0iISmSkkWN2xncNznBXldaZ1Cgkig9Sfg/6kLa0QCpqQoGxElCgPNimekLARCbYSaG8EIHlly5ZNtrBYCF144YWuv58oXg4W+4cDxceEmUSEBPOwSZMmco1dRcDaZ/hfBB8CmLZha4Nn9C3ziP5l25zx6nc8JlVIEIZkBWFXGgw8ogsIBPY+cYD2i+D+/fvL/hnp7V8UsBVg9ztZuWFAshK3+rLi5DlltfVlUmFQixYtKhPLQqcQ1rWwikFQ0R6EiHEs8fLj2qmmCdERPrRp6PxY+UGs/oiXNiN4jQvwIyRSUbZk4lXPWEICEMV854Coe/HFF+UeUSfGCas2+y2F0xE7v5HgW4Ss+EYCCAvj9ChH3bp104yy/UaCejm/kYgWEoxd9mOZ1/Qr3wGx+uFrcfKkTb788ktJi9MnqsC/9hsJBDm/wUr/mWeekbJaIWG/kSBf7Iv9RiIzhQQGmO0AyoE9Y2/ZSfQ3Ehb6NsjfSFAenA31ov/5y5RYQoJzPuRzjmXyQijS9ghC8nf+lU2y8HKwfMfhtH/UIRXtm2oSERLYUoS2taV2rLGAJw1bjMwp2sf+RQuRC+YjB+2FyPdLSr6ROFNIVn35yDSRAcxKkD3koHO2jIszsZ5eQiKzsE4qiASljRLFS0iEFb8ONuwkq55EElmgp6LNVEi4cLbVN1FUSIQXFRLeqJAIJiok0gfbkNH/n0SyUCHhggoJf6iQCC9hd5KZgQqJYKJCIjiokHBBhYQ/VEiEFxUS3qiQCCYqJIKDCgkXVEj4Q4VEeFEh4Y0KiWCiQiI4qJBwQYWEP1RIhBcVEt6okAgmKiSCgwoJF1RI+EOFRHhRIeGNColgokIiOKiQcEGFhD9USIQXFRLeqJAIJiokgoMKCRdUSPhDhUR4USHhjQqJYKJCIjiokHBBhYQ/VEiEFxUS3qiQCCYqJIKDCgkXVEj4Q4VEeFEh4Y0KiWCiQiI4qJBwQYWEP1RIhBcVEt6okAgmKiSCgwoJF1RI+EOFRHhRIeGNColgokIiOKiQcEGFhD9USIQXFRLeqJAIJiokgoMKCRdUSPhDhUR4USHhjQqJYKJCIjikW0jooYceeuihhx56OA/fQkJRFEVRFMUPKiQURVEURUkYFRKKoiiKoiSMCglFURRFURJGhYSiKIqiKAlizP8B1BIZs/ms854AAAAASUVORK5CYII=;" vertex="1" parent="1">
          <mxGeometry x="40" y="470" width="520" height="212" as="geometry" />
        </mxCell>
      </root>
    </mxGraphModel>
  </diagram>
</mxfile>
